<svg xmlns="http://www.w3.org/2000/svg" viewBox="0 0 215.32 83.61"><defs><style>.cls-1{fill:#ebddc7;}.cls-2,.cls-3{fill:#1a3950;}.cls-2{fill-rule:evenodd;}</style></defs><g id="Layer_2" data-name="Layer 2"><g id="Layer_1-2" data-name="Layer 1"><rect class="cls-1" width="215.32" height="83.61"/><path class="cls-2" d="M112,57.76H94a2.45,2.45,0,0,0-2.3,1.54s0,.07,0,.1,0,.22,0,.32l0,.14h0a1.85,1.85,0,0,0,.18.77A2.54,2.54,0,0,0,94.13,62H112a2.48,2.48,0,0,0,2.41-1.53,1.9,1.9,0,0,0,.1-.57,2,2,0,0,0-.74-1.49A2.72,2.72,0,0,0,112,57.76Z"/><path class="cls-2" d="M129.57,57.76H119.23l-.16,0H119l-.14,0-.09,0-.14,0-.07,0-.16.07-.11,0-.11.06a.31.31,0,0,0-.1,0l-.08.05-.1.07-.06,0-.1.08,0,0a2.33,2.33,0,0,0-.42.53h0l-.08.15a1.86,1.86,0,0,0-.16.74,2.33,2.33,0,0,0,2.51,2.1h10.35l.15,0h.09l.14,0,.08,0,.14,0,.08,0,.16-.07.11,0,.11,0,.1-.06.07,0,.1-.07.06-.05.11-.08,0,0a2.33,2.33,0,0,0,.42-.53h0c0-.06.06-.11.08-.16h0a1.84,1.84,0,0,0,.16-.73A2.33,2.33,0,0,0,129.57,57.76Z"/><path class="cls-2" d="M155,57.76H137.1a2.49,2.49,0,0,0-2.42,1.54,1.79,1.79,0,0,0-.09.57h0A2.33,2.33,0,0,0,137.1,62H155a2.53,2.53,0,0,0,2.33-1.33h0c0-.07.05-.14.08-.2a.36.36,0,0,1,0-.11c0-.11,0-.22.05-.32a.78.78,0,0,0,0-.14h0A2.33,2.33,0,0,0,155,57.76Z"/><path class="cls-3" d="M50.5,25.31a6.65,6.65,0,0,1,2-.87,7.3,7.3,0,0,1,1.84-.32h.9v.24a6.23,6.23,0,0,0-2.13.45,6.3,6.3,0,0,0-1.64.92,6.81,6.81,0,0,0-1.25,1.38,15.5,15.5,0,0,0-.93,1.47c-.22.41-.48.92-.77,1.55L41.74,44.88a8.82,8.82,0,0,0-.9,2.5h-.22L33.81,31.83a2.53,2.53,0,0,0-.93-1.15,2.26,2.26,0,0,0-1.21-.38h-.19v-.24h5.46v.24h-.22a.94.94,0,0,0-1,.68,1.16,1.16,0,0,0,0,.34,1.38,1.38,0,0,0,.12.49l5.07,12.71,6-14.39A10.59,10.59,0,0,1,50.5,25.31Z"/><path class="cls-3" d="M50.88,46.8A1.47,1.47,0,0,0,52,46.35a1.53,1.53,0,0,0,.47-1.08V31.81a1.55,1.55,0,0,0-1.55-1.51h-.31v-.24h5.31v.24h-.32a1.5,1.5,0,0,0-1.08.44A1.53,1.53,0,0,0,54,31.81V45.27a1.48,1.48,0,0,0,.46,1.08,1.51,1.51,0,0,0,1.09.45h.32V47H50.57V46.8Z"/><path class="cls-3" d="M59.08,46.8a1.47,1.47,0,0,0,1.08-.45,1.53,1.53,0,0,0,.47-1.08V31.83a1.53,1.53,0,0,0-.47-1.08,1.47,1.47,0,0,0-1.08-.45h-.31v-.24h5.31v.24h-.32a1.48,1.48,0,0,0-1.33.76,1.43,1.43,0,0,0-.22.77V46.29h3.47a4.16,4.16,0,0,0,2.74-.8A6.11,6.11,0,0,0,70,43.11h.24L68.83,47H58.77V46.8Z"/><path class="cls-3" d="M72.35,46.8a1.47,1.47,0,0,0,1.08-.45,1.62,1.62,0,0,0,.47-1.08V31.83a1.62,1.62,0,0,0-.47-1.08,1.47,1.47,0,0,0-1.08-.45H72v-.24h5.31v.24H77a1.54,1.54,0,0,0-1.55,1.53V46.29h3.46a4.15,4.15,0,0,0,2.74-.8,6,6,0,0,0,1.58-2.38h.24L82.1,47H72V46.8Z"/><path class="cls-3" d="M101.57,46.8h.2V47H96.31V46.8h.22a.9.9,0,0,0,.76-.33,1.05,1.05,0,0,0,.26-.62,2,2,0,0,0-.1-.58L95.9,41.15H89.35l-1.63,4.14a2,2,0,0,0-.09.57,1,1,0,0,0,.25.61.92.92,0,0,0,.77.33h.21V47H84V46.8h.22a2.13,2.13,0,0,0,1.19-.39,2.83,2.83,0,0,0,.94-1.14l5.48-13.05a8.82,8.82,0,0,0,.9-2.5h.22l6.5,15.55a2.58,2.58,0,0,0,.92,1.14A2.15,2.15,0,0,0,101.57,46.8ZM89.64,40.42h6L92.7,32.63Z"/><path class="cls-3" d="M109.31,46.8a1.47,1.47,0,0,0,1.08-.45,1.58,1.58,0,0,0,.47-1.08V31.81a1.53,1.53,0,0,0-.47-1.07,1.5,1.5,0,0,0-1.08-.44H109v-.24h5.31v.24H114a1.55,1.55,0,0,0-1.55,1.51V45.27a1.44,1.44,0,0,0,.46,1.08,1.51,1.51,0,0,0,1.09.45h.31V47H109V46.8Z"/><path class="cls-3" d="M117.21,46a8.59,8.59,0,0,1-.07-1.31,6.37,6.37,0,0,1,.37-2.06h.21c0,.18,0,.36,0,.54a3.52,3.52,0,0,0,.9,2.46,3.08,3.08,0,0,0,2.37,1,3.53,3.53,0,0,0,2.51-.92,3,3,0,0,0,1-2.32,2.93,2.93,0,0,0-1-2.26l-4.66-4.32a3.88,3.88,0,0,1-1.31-2.94A4.13,4.13,0,0,1,118.71,31a4,4,0,0,1,3.11-1.23,10.47,10.47,0,0,1,2.09.24h.94v3h-.21a2.3,2.3,0,0,0-.79-1.82,3,3,0,0,0-2-.68,2.84,2.84,0,0,0-2.07.82,2.78,2.78,0,0,0-.84,2.07,2.84,2.84,0,0,0,1,2.13l4.78,4.41a4,4,0,0,1,1.21,3.06,4.36,4.36,0,0,1-1.23,3.19,4.46,4.46,0,0,1-3.3,1.25,8.59,8.59,0,0,1-2.27-.33A4,4,0,0,1,117.21,46Z"/><path class="cls-3" d="M141.57,32.22a1.4,1.4,0,0,0-.42-1,1.37,1.37,0,0,0-1-.44h-4.6V45.29a1.55,1.55,0,0,0,1.55,1.51h.31V47h-5.31V46.8h.32a1.5,1.5,0,0,0,1.08-.44,1.54,1.54,0,0,0,.47-1V30.77h-4.61a1.34,1.34,0,0,0-1,.44,1.42,1.42,0,0,0-.4,1v.41l-.24,0V29.6a6.63,6.63,0,0,0,1.26.29,9.91,9.91,0,0,0,1.65.15h8.19a8.45,8.45,0,0,0,2-.19,8.32,8.32,0,0,0,1-.25v3.06l-.24,0Z"/><path class="cls-3" d="M165.26,51.16a7.15,7.15,0,0,1-1.81.27,8.24,8.24,0,0,1-1.39-.1,6.15,6.15,0,0,1-1.3-.37,9.28,9.28,0,0,1-1.3-.65,9.1,9.1,0,0,1-1.21-.89,16.18,16.18,0,0,1-2-1.94q-.91-1-3.51-3.92l-3.44-3.82c-.57-.63-1-1-1.31-1V38.5a18.55,18.55,0,0,0,1.88-.06,5.85,5.85,0,0,0,1-.22,2.68,2.68,0,0,0,.9-.42,3.35,3.35,0,0,0,1.43-3.06,4.66,4.66,0,0,0-.79-2.84,2.66,2.66,0,0,0-2.22-1.09h-3V45.27a1.55,1.55,0,0,0,1.55,1.53H149l0,.24h-5.32V46.8H144a1.53,1.53,0,0,0,1.07-.44,1.5,1.5,0,0,0,.48-1.07V31.83a1.53,1.53,0,0,0-.47-1.08A1.47,1.47,0,0,0,144,30.3h-.32v-.24h6.55a4.85,4.85,0,0,1,3.43,1.2,4.11,4.11,0,0,1,1.3,3.18,5,5,0,0,1-1.19,3.39,3.64,3.64,0,0,1-2.91,1.42h0c.55.59,1.17,1.26,1.87,2,2.79,3.09,4.59,5,5.38,5.82s1.49,1.44,2.1,2a8.75,8.75,0,0,0,1.61,1.13,5.91,5.91,0,0,0,2.84.78,3.79,3.79,0,0,0,.58,0Z"/><path class="cls-3" d="M159.85,46.8a1.47,1.47,0,0,0,1.08-.45,1.53,1.53,0,0,0,.47-1.08V31.81a1.55,1.55,0,0,0-1.55-1.51h-.31v-.24h5.31v.24h-.32a1.5,1.5,0,0,0-1.08.44,1.53,1.53,0,0,0-.47,1.07V45.27a1.44,1.44,0,0,0,.46,1.08,1.51,1.51,0,0,0,1.09.45h.32V47h-5.31V46.8Z"/><path class="cls-3" d="M183.64,46.8h.2V47h-5.46V46.8h.22a.9.9,0,0,0,.76-.33,1.05,1.05,0,0,0,.26-.62,1.69,1.69,0,0,0-.1-.58L178,41.15h-6.55l-1.62,4.14a1.71,1.71,0,0,0-.1.57,1,1,0,0,0,.25.61.92.92,0,0,0,.77.33h.22V47h-4.88V46.8h.22a2.13,2.13,0,0,0,1.19-.39,2.76,2.76,0,0,0,.94-1.14l5.48-13.05a8.82,8.82,0,0,0,.9-2.5H175l6.5,15.55a2.65,2.65,0,0,0,.92,1.14A2.15,2.15,0,0,0,183.64,46.8Zm-11.93-6.38h6l-2.91-7.79Z"/><path class="cls-3" d="M55.05,57.37,52.55,63h-.4l-2.5-5.6h.45l2.26,5.07,2.27-5.07Z"/><path class="cls-3" d="M59.25,61.4H56L55.29,63h-.44l2.58-5.6h.4L60.41,63H60Zm-.15-.35-1.47-3.23-1.47,3.23Z"/><path class="cls-3" d="M65.67,60.56a1.36,1.36,0,0,1,.32.93,1.29,1.29,0,0,1-.53,1.1,2.61,2.61,0,0,1-1.54.38h-2.5v-5.6h2.34a2.42,2.42,0,0,1,1.42.37,1.23,1.23,0,0,1,.51,1.06,1.28,1.28,0,0,1-.25.81,1.36,1.36,0,0,1-.69.47A1.54,1.54,0,0,1,65.67,60.56Zm-3.84-2.84V60h1.92a1.92,1.92,0,0,0,1.13-.29,1,1,0,0,0,.39-.83,1,1,0,0,0-.39-.83,1.92,1.92,0,0,0-1.13-.29Zm3.33,4.62a1,1,0,0,0,.42-.88,1,1,0,0,0-.42-.87,2.23,2.23,0,0,0-1.24-.28H61.83v2.31h2.09A2.32,2.32,0,0,0,65.16,62.34Z"/><path class="cls-3" d="M71.33,63,70,61.1a3.44,3.44,0,0,1-.54,0h-1.6V63h-.41v-5.6h2a2.55,2.55,0,0,1,1.66.5,1.71,1.71,0,0,1,.6,1.39,1.88,1.88,0,0,1-.34,1.12,1.79,1.79,0,0,1-1,.63l1.4,2Zm-1.88-2.19a2.05,2.05,0,0,0,1.37-.4,1.57,1.57,0,0,0,0-2.24,2.05,2.05,0,0,0-1.37-.4h-1.6v3Z"/><path class="cls-3" d="M73.2,57.37h.41V63H73.2Z"/><path class="cls-3" d="M79.56,60.19H80v2.1a2.42,2.42,0,0,1-.89.54A3.4,3.4,0,0,1,78,63a3,3,0,0,1-1.5-.37,2.66,2.66,0,0,1-1-1A2.79,2.79,0,0,1,75,60.17a2.73,2.73,0,0,1,.38-1.45,2.62,2.62,0,0,1,1-1A3,3,0,0,1,78,57.33a3.15,3.15,0,0,1,1.13.2,2.43,2.43,0,0,1,.89.57l-.26.27a2.23,2.23,0,0,0-.79-.51,2.93,2.93,0,0,0-1-.15,2.58,2.58,0,0,0-1.3.32,2.33,2.33,0,0,0-.91.88,2.47,2.47,0,0,0-.33,1.26,2.41,2.41,0,0,0,1.24,2.14,2.59,2.59,0,0,0,1.3.33,2.45,2.45,0,0,0,1.59-.52Z"/><path class="cls-3" d="M85.21,61.4H82L81.25,63h-.44l2.58-5.6h.4L86.37,63h-.44Zm-.15-.35-1.47-3.23-1.47,3.23Z"/><path class="cls-2" d="M106.89,20.53l0-.12h0c0-.1,0-.2.06-.3a.44.44,0,0,1,0-.1,2.09,2.09,0,0,1,1.09-1.14,3.15,3.15,0,0,1,1.32-.29h6.2a3.15,3.15,0,0,1,1.21.24l.14.07.14.07.12.08.11.08a.05.05,0,0,1,0,0l.09.08.11.1a1.79,1.79,0,0,1,.34.44A1.12,1.12,0,0,1,118,20a.5.5,0,0,1,0,.13,1.19,1.19,0,0,1,0,.26.71.71,0,0,1,0,.14h0l0,.12c0,.1,0,.2,0,.3a.43.43,0,0,1,0,.11,1.83,1.83,0,0,1-.51.74l-.09.08s0,0,0,0l-.08.06a1.18,1.18,0,0,1-.19.11.41.41,0,0,1-.11.07l-.08,0-.18.07-.11,0h0a2.93,2.93,0,0,1-.68.15h-6.61a2.91,2.91,0,0,1-.6-.06h0l-.09,0a2.72,2.72,0,0,1-1-.48A1.76,1.76,0,0,1,106.89,20.53Z"/><path class="cls-2" d="M75.55,22.48H101.8a2.48,2.48,0,0,0,2.41-1.43,1.6,1.6,0,0,0,.09-.53h0a2.28,2.28,0,0,0-2.5-2H75.55A2.48,2.48,0,0,0,73.14,20a1.32,1.32,0,0,0-.1.53h0A2.29,2.29,0,0,0,75.55,22.48Z"/><path class="cls-2" d="M59.31,20.52l0-.13h0c0-.09,0-.19,0-.29s0-.07,0-.11a2.1,2.1,0,0,1,1.1-1.14,3.07,3.07,0,0,1,1.31-.29H68a2.28,2.28,0,0,1,2.5,2,2.28,2.28,0,0,1-2.5,2H61.82a2.9,2.9,0,0,1-1.77-.57A1.78,1.78,0,0,1,59.31,20.52Z"/></g></g></svg>