<svg xmlns="http://www.w3.org/2000/svg" viewBox="0 0 57.09 30.99"><defs><style>.cls-1{fill:#1a3950;}.cls-1,.cls-2{fill-rule:evenodd;}.cls-2{fill:#ecdbc1;}</style></defs><g id="Layer_2" data-name="Layer 2"><g id="Layer_1-2" data-name="Layer 1"><path class="cls-1" d="M17.67,18.59H2.08a2.16,2.16,0,0,0-2,1.35s0,.06,0,.09a2.74,2.74,0,0,0,0,.28s0,.08,0,.12H0a1.73,1.73,0,0,0,.15.68,2.23,2.23,0,0,0,2,1.16h15.5a2.16,2.16,0,0,0,2.1-1.35,1.57,1.57,0,0,0,.08-.49,1.75,1.75,0,0,0-.64-1.31A2.4,2.4,0,0,0,17.67,18.59Z"/><path class="cls-1" d="M32.89,18.59h-9l-.13,0h-.08l-.12,0-.07,0-.12,0-.07,0-.13.05-.1.05-.1,0-.08.05-.07,0-.09.06-.05,0-.08.07,0,0a1.83,1.83,0,0,0-.37.47h0a.83.83,0,0,0-.07.13,1.57,1.57,0,0,0-.14.64,2,2,0,0,0,2.18,1.85h9l.14,0h.07l.12,0h.08l.11,0,.07,0,.14-.06L34,22l.09,0,.09-.06.06,0,.09-.06,0,0,.09-.07,0,0a2,2,0,0,0,.37-.46h0l.07-.13h0a1.74,1.74,0,0,0,.13-.64A2,2,0,0,0,32.89,18.59Z"/><path class="cls-1" d="M54.91,18.59H39.41a2.14,2.14,0,0,0-2.09,1.35,1.57,1.57,0,0,0-.08.49h0a2,2,0,0,0,2.17,1.84h15.5a2.2,2.2,0,0,0,2-1.17h0a1.34,1.34,0,0,0,.07-.18.29.29,0,0,0,0-.09c0-.1,0-.19,0-.28a.5.5,0,0,1,0-.12h0A2,2,0,0,0,54.91,18.59Z"/><path class="cls-1" d="M12.75,29.13v.12h0c0,.09,0,.18,0,.28s0,.06,0,.09a1.91,1.91,0,0,1-.95,1.07,2.38,2.38,0,0,1-1.14.28H5.2a2.52,2.52,0,0,1-1-.23L4,30.69l-.12-.07-.11-.08-.1-.07,0,0-.08-.06-.09-.1a1.73,1.73,0,0,1-.3-.41,2.44,2.44,0,0,1-.1-.24l0-.12a1,1,0,0,1,0-.25.53.53,0,0,1,0-.13H3l0-.12a2.74,2.74,0,0,1,.05-.28s0-.06,0-.1a1.76,1.76,0,0,1,.45-.7l.08-.07,0,0,.07-.06.16-.11L4,27.6l.07,0,.15-.08.1,0h0a2.21,2.21,0,0,1,.59-.14h5.73a2.24,2.24,0,0,1,.52.05h0l.08,0a2.3,2.3,0,0,1,.85.44A1.72,1.72,0,0,1,12.75,29.13Z"/><path class="cls-1" d="M39.92,27.31H17.17a2.13,2.13,0,0,0-2.09,1.34,1.42,1.42,0,0,0-.08.5h0A2,2,0,0,0,17.17,31H39.92A2.16,2.16,0,0,0,42,29.65a1.69,1.69,0,0,0,.08-.5h0A2,2,0,0,0,39.92,27.31Z"/><path class="cls-1" d="M54,29.15l0,.12h0a2.74,2.74,0,0,1,0,.28.44.44,0,0,1,0,.1A1.91,1.91,0,0,1,53,30.72a2.49,2.49,0,0,1-1.14.27H46.44a2,2,0,0,1-2.18-1.84,2,2,0,0,1,2.18-1.84h5.37a2.34,2.34,0,0,1,1.54.54A1.71,1.71,0,0,1,54,29.15Z"/><path class="cls-2" d="M39.41,12.13H55a2.13,2.13,0,0,0,2-1.34s0-.07,0-.1,0-.18,0-.28,0-.08,0-.12h0a1.57,1.57,0,0,0-.15-.68,2.2,2.2,0,0,0-2-1.16H39.41a2.14,2.14,0,0,0-2.09,1.34,1.64,1.64,0,0,0,.55,1.8A2.42,2.42,0,0,0,39.41,12.13Z"/><path class="cls-2" d="M24.2,12.13h9.1l.07,0,.12,0,.08,0,.11,0,.07,0,.14-.06.1,0,.09-.05.09-.05.06,0,.09-.06,0,0,.09-.07,0,0a2,2,0,0,0,.37-.46h0l.07-.14a1.74,1.74,0,0,0,.13-.64,2,2,0,0,0-2.17-1.84h-9l-.13,0h-.08l-.11,0-.08,0-.12,0-.07,0-.13.06-.1,0-.1.05-.08.05-.07,0-.09.06a.1.1,0,0,1-.05,0L22.63,9l0,0a1.63,1.63,0,0,0-.37.46h0a.91.91,0,0,0-.07.14h0a1.53,1.53,0,0,0-.14.64A2,2,0,0,0,24.2,12.13Z"/><path class="cls-2" d="M2.17,12.13H17.68a2.16,2.16,0,0,0,2.09-1.34,1.69,1.69,0,0,0,.08-.5h0a2,2,0,0,0-2.17-1.84H2.17a2.21,2.21,0,0,0-2,1.16h0a.87.87,0,0,0-.07.17s0,.06,0,.1,0,.18,0,.28,0,.08,0,.12H0A2,2,0,0,0,2.17,12.13Z"/><path class="cls-2" d="M44.33,1.89l0-.12h0c0-.09,0-.18,0-.28a.44.44,0,0,1,0-.1A1.91,1.91,0,0,1,45.37.29,2.48,2.48,0,0,1,46.5,0h5.38a2.41,2.41,0,0,1,1,.23l.12.06.12.07.11.08.09.07,0,0,.08.07.09.09a2,2,0,0,1,.3.42,2.34,2.34,0,0,1,.09.24.56.56,0,0,1,0,.12,2.34,2.34,0,0,1,0,.26v.13h0L54,2c0,.09,0,.18,0,.28s0,.06,0,.1a1.77,1.77,0,0,1-.44.71.6.6,0,0,0-.08.08l0,0a.18.18,0,0,1-.07,0l-.15.12-.1.06-.07,0a.8.8,0,0,1-.16.08l-.09,0h0a2.32,2.32,0,0,1-.59.15H46.44a2.18,2.18,0,0,1-.52-.06h0l-.07,0A2.18,2.18,0,0,1,45,3.21,1.73,1.73,0,0,1,44.33,1.89Z"/><path class="cls-2" d="M17.17,3.75H39.92A2.16,2.16,0,0,0,42,2.38a1.69,1.69,0,0,0,.08-.5h0A2,2,0,0,0,39.92,0H17.17a2.15,2.15,0,0,0-2.09,1.37,1.69,1.69,0,0,0-.08.5h0A2,2,0,0,0,17.17,3.75Z"/><path class="cls-2" d="M3.1,1.87l0-.12h0a2.93,2.93,0,0,1,0-.29s0-.06,0-.09a1.93,1.93,0,0,1,1-1.09A2.36,2.36,0,0,1,5.27,0h5.38a2,2,0,0,1,2.17,1.87,2,2,0,0,1-2.17,1.88H5.27A2.32,2.32,0,0,1,3.74,3.2,1.74,1.74,0,0,1,3.1,1.87Z"/></g></g></svg>