<svg xmlns="http://www.w3.org/2000/svg" viewBox="0 0 115.65 101.87"><defs><style>.cls-1{fill:#ebddc7;}.cls-2{fill:#1a3950;fill-rule:evenodd;}</style></defs><g id="Layer_2" data-name="Layer 2"><g id="Layer_1-2" data-name="Layer 1"><rect class="cls-1" width="115.65" height="101.87"/><path class="cls-2" d="M47,54H31.36a2.13,2.13,0,0,0-2,1.35.29.29,0,0,0,0,.09c0,.09,0,.19-.05.28a.5.5,0,0,1,0,.12h0a1.5,1.5,0,0,0,.16.67,2.2,2.2,0,0,0,2,1.17H47a2.15,2.15,0,0,0,2.09-1.35,1.57,1.57,0,0,0,.08-.49,1.71,1.71,0,0,0-.64-1.31A2.37,2.37,0,0,0,47,54Z"/><path class="cls-2" d="M62.17,54h-9l-.14,0H53l-.12,0-.08,0-.12,0-.06,0-.14.05-.1,0-.09.05-.09,0-.06,0-.09.06,0,0-.09.07,0,0a1.83,1.83,0,0,0-.37.47h0a.83.83,0,0,0-.07.13,1.57,1.57,0,0,0-.14.64,2,2,0,0,0,2.18,1.85h9l.14,0h.07l.12,0h.08l.11,0,.07,0,.14-.06.1,0,.09,0,.09-.06.06,0,.09-.06,0,0,.09-.07,0,0a1.78,1.78,0,0,0,.37-.46h0a.83.83,0,0,0,.07-.13h0a1.57,1.57,0,0,0,.14-.64A2,2,0,0,0,62.17,54Z"/><path class="cls-2" d="M84.2,54H68.69a2.15,2.15,0,0,0-2.09,1.35,1.57,1.57,0,0,0-.08.49h0a2,2,0,0,0,2.17,1.84H84.2a2.19,2.19,0,0,0,2-1.17h0l.07-.18s0-.06,0-.09,0-.19,0-.28,0-.08,0-.12h0A2,2,0,0,0,84.2,54Z"/><path class="cls-2" d="M42,64.57l0,.12h0c0,.09,0,.18-.05.28s0,.06,0,.09a1.91,1.91,0,0,1-1,1.07,2.49,2.49,0,0,1-1.14.27H34.49a2.56,2.56,0,0,1-1.05-.22l-.12-.06-.12-.07L33.09,66l-.1-.07,0,0-.08-.07-.09-.09a1.73,1.73,0,0,1-.3-.41,2.44,2.44,0,0,1-.1-.24l0-.12a1,1,0,0,1,0-.25.53.53,0,0,1,0-.13h0l0-.12a2.74,2.74,0,0,1,.05-.28.44.44,0,0,1,0-.1,1.73,1.73,0,0,1,.44-.7l.08-.07,0,0,.08-.06.15-.11.1-.06.07,0,.15-.08.1,0h0a2.31,2.31,0,0,1,.59-.14h5.73a2.24,2.24,0,0,1,.52,0h0l.08,0a2.3,2.3,0,0,1,.85.44A1.71,1.71,0,0,1,42,64.57Z"/><path class="cls-2" d="M69.2,62.75H46.45a2.14,2.14,0,0,0-2.09,1.34,1.64,1.64,0,0,0-.08.5h0a2,2,0,0,0,2.17,1.84H69.2a2.16,2.16,0,0,0,2.09-1.34,1.69,1.69,0,0,0,.08-.5h0A2,2,0,0,0,69.2,62.75Z"/><path class="cls-2" d="M83.27,64.59l0,.12h0a2.74,2.74,0,0,1,0,.28s0,.06,0,.1a1.93,1.93,0,0,1-1,1.07,2.48,2.48,0,0,1-1.13.27H75.72a1.87,1.87,0,1,1,0-3.68H81.1a2.34,2.34,0,0,1,1.53.54A1.71,1.71,0,0,1,83.27,64.59Z"/><path class="cls-2" d="M68.69,47.57h15.6a2.11,2.11,0,0,0,2-1.34.36.36,0,0,0,0-.1c0-.09,0-.18,0-.28a.5.5,0,0,1,0-.12h0a1.58,1.58,0,0,0-.16-.68,2.2,2.2,0,0,0-2-1.16H68.69a2.15,2.15,0,0,0-2.09,1.34,1.63,1.63,0,0,0,.56,1.8A2.37,2.37,0,0,0,68.69,47.57Z"/><path class="cls-2" d="M53.48,47.57h9.1l.07,0,.12,0,.08,0,.12,0,.06,0,.14-.06.1,0,.09,0,.09-.05.06,0,.09-.06a.1.1,0,0,0,0,0l.09-.07,0,0a1.78,1.78,0,0,0,.37-.46h0a.91.91,0,0,0,.07-.14,1.75,1.75,0,0,0,.14-.64,2,2,0,0,0-2.18-1.84h-9l-.14,0H53l-.12,0-.08,0-.11,0-.07,0-.14.05-.1,0-.09,0-.09.05-.06,0-.09.06,0,0-.09.08,0,0a1.63,1.63,0,0,0-.37.46h0a.91.91,0,0,0-.07.14h0a1.53,1.53,0,0,0-.14.64A2,2,0,0,0,53.48,47.57Z"/><path class="cls-2" d="M31.45,47.57H47a2.16,2.16,0,0,0,2.09-1.34,1.69,1.69,0,0,0,.08-.5h0A2,2,0,0,0,47,43.89H31.45a2.18,2.18,0,0,0-2,1.16h0s-.05.11-.07.17,0,.06,0,.1a2.33,2.33,0,0,0-.05.28s0,.08,0,.12h0A2,2,0,0,0,31.45,47.57Z"/><path class="cls-2" d="M73.61,37.33l0-.12h0c0-.09,0-.19.05-.28s0-.06,0-.1a1.94,1.94,0,0,1,1-1.09,2.49,2.49,0,0,1,1.14-.27h5.37a2.41,2.41,0,0,1,1,.23l.12.06.12.07.11.08.1.07,0,0,.08.07.09.09a2,2,0,0,1,.3.42,2.44,2.44,0,0,1,.1.24l0,.12a1.17,1.17,0,0,1,0,.26.53.53,0,0,1,0,.13h0l0,.13c0,.09,0,.18,0,.28a.44.44,0,0,1,0,.1,1.77,1.77,0,0,1-.44.71l-.08.08,0,0-.08.05-.15.12-.1.06-.07,0-.15.08-.1,0h0a2.32,2.32,0,0,1-.59.15H75.72a2.24,2.24,0,0,1-.52-.06h0l-.08,0a2.33,2.33,0,0,1-.85-.46A1.73,1.73,0,0,1,73.61,37.33Z"/><path class="cls-2" d="M46.45,39.19H69.2a2.15,2.15,0,0,0,2.09-1.37,1.69,1.69,0,0,0,.08-.5h0a2,2,0,0,0-2.17-1.87H46.45a2.16,2.16,0,0,0-2.09,1.37,1.69,1.69,0,0,0-.08.5h0A2,2,0,0,0,46.45,39.19Z"/><path class="cls-2" d="M32.38,37.31l0-.12h0a2.93,2.93,0,0,1,.05-.29s0-.06,0-.09a1.93,1.93,0,0,1,1-1.09,2.36,2.36,0,0,1,1.13-.28h5.38a1.9,1.9,0,1,1,0,3.75H34.55A2.34,2.34,0,0,1,33,38.64,1.77,1.77,0,0,1,32.38,37.31Z"/></g></g></svg>