<?xml version="1.0" encoding="UTF-8" standalone="no"?>
<!-- Generator: Adobe Illustrator 24.2.3, SVG Export Plug-In . SVG Version: 6.00 Build 0)  -->

<svg
   version="1.1"
   id="Layer_1"
   x="0px"
   y="0px"
   viewBox="0 0 152.4 46.5"
   style="enable-background:new 0 0 152.4 46.5;"
   xml:space="preserve"
   xmlns="http://www.w3.org/2000/svg"
   xmlns:svg="http://www.w3.org/2000/svg"><defs
   id="defs67" />
<style
   type="text/css"
   id="style2">
	.st0{fill-rule:evenodd;clip-rule:evenodd;fill:#1A3950;}
	.st1{enable-background:new    ;}
	.st2{fill:#1A3950;}
	.st3{fill-rule:evenodd;clip-rule:evenodd;fill:#ECDBC1;}
</style>
<g
   id="Layer_2_1_">
	<g
   id="Layer_1-2">
		<path
   class="st0"
   d="M80.5,39.2h-18c-1,0-1.9,0.6-2.3,1.5c0,0,0,0.1,0,0.1l-0.1,0.3c0,0,0,0.1,0,0.1l0,0c0,0.3,0.1,0.5,0.2,0.8    c0.5,0.9,1.4,1.4,2.3,1.3h17.8c1.1,0.1,2.1-0.5,2.5-1.5c0.1-0.2,0.1-0.4,0.1-0.6c0-0.6-0.3-1.1-0.7-1.5    C81.8,39.4,81.2,39.2,80.5,39.2z"
   id="path4"
   style="fill:#ecdbc1;fill-opacity:1" />
		<path
   class="st0"
   d="M98.1,39.2H87.8h-0.2h-0.1h-0.1h-0.1h-0.1h-0.1l-0.2,0.1h-0.1l-0.1,0.1h-0.1h-0.1l-0.1,0.1l-0.1,0l-0.1,0.1    l0,0c-0.2,0.2-0.3,0.3-0.4,0.5l0,0c0,0-0.1,0.1-0.1,0.2c-0.1,0.2-0.2,0.5-0.2,0.7c0.1,1.3,1.2,2.2,2.5,2.1h10.3h0.2h0.1h0.1h0.1    H99h0.1l0.2-0.1h0.1l0.1,0l0.1-0.1l0.1,0l0.1-0.1h0.1c0,0,0.1,0,0.1-0.1l0,0c0.2-0.2,0.3-0.3,0.4-0.5l0,0c0-0.1,0.1-0.1,0.1-0.2    l0,0c0.1-0.2,0.2-0.5,0.2-0.7C100.4,40,99.3,39.1,98.1,39.2z"
   id="path6"
   style="fill:#ecdbc1;fill-opacity:1" />
		<path
   class="st0"
   d="M123.5,39.2h-17.9c-1,0-2,0.6-2.4,1.5c-0.1,0.2-0.1,0.4-0.1,0.6l0,0c0.1,1.3,1.2,2.2,2.5,2.1h17.9    c1,0,1.9-0.5,2.3-1.3l0,0c0-0.1,0-0.1,0.1-0.2s0-0.1,0-0.1l0.1-0.3c0,0,0-0.1,0-0.1l0,0C125.9,40.1,124.8,39.1,123.5,39.2z"
   id="path8"
   style="fill:#ecdbc1;fill-opacity:1" />
		<g
   class="st1"
   id="g14"
   style="fill:#ecdbc1;fill-opacity:1">
			<path
   class="st2"
   d="M19,6.8c0.5-0.4,1.2-0.7,2-0.9s1.4-0.3,1.8-0.3c0.5,0,0.8,0,0.9,0v0.2c-0.8,0-1.5,0.2-2.1,0.4     c-0.7,0.3-1.2,0.6-1.6,0.9c-0.4,0.3-0.8,0.8-1.2,1.4C18.3,9.1,18,9.6,17.8,10S17.3,11,17,11.6l-6.7,14.7     c-0.6,1.3-0.9,2.1-0.9,2.5H9.1L2.3,13.3c-0.2-0.5-0.5-0.9-0.9-1.2c-0.4-0.3-0.8-0.4-1.2-0.4H0v-0.2h5.5v0.2H5.2     c-0.5,0-0.8,0.2-1,0.7c0,0.1,0,0.2,0,0.3c0,0.1,0,0.3,0.1,0.5L9.4,26l6-14.4C16.4,9.3,17.6,7.7,19,6.8z"
   id="path10"
   style="fill:#ecdbc1;fill-opacity:1" />
			<path
   class="st2"
   d="M19.4,28.2c0.4,0,0.8-0.1,1.1-0.4c0.3-0.3,0.5-0.7,0.5-1.1V13.3c0-0.4-0.2-0.8-0.5-1.1     c-0.3-0.3-0.7-0.4-1.1-0.4h-0.3v-0.2h5.3v0.2h-0.3c-0.4,0-0.8,0.1-1.1,0.4c-0.3,0.3-0.5,0.6-0.5,1.1v13.5c0,0.4,0.2,0.8,0.5,1.1     c0.3,0.3,0.7,0.4,1.1,0.4h0.3v0.2h-5.3v-0.2H19.4z"
   id="path12"
   style="fill:#ecdbc1;fill-opacity:1" />
		</g>
		<g
   class="st1"
   id="g18"
   style="fill:#ecdbc1;fill-opacity:1">
			<path
   class="st2"
   d="M27.6,28.2c0.4,0,0.8-0.1,1.1-0.4c0.3-0.3,0.5-0.7,0.5-1.1V13.3c0-0.4-0.2-0.8-0.5-1.1     c-0.3-0.3-0.7-0.4-1.1-0.4h-0.3v-0.2h5.3v0.2h-0.3c-0.6,0-1,0.3-1.3,0.8c-0.1,0.2-0.2,0.5-0.2,0.8v14.5h3.5     c1.2,0,2.1-0.3,2.7-0.8c0.6-0.5,1.2-1.3,1.6-2.4h0.2l-1.4,3.9H27.3v-0.2H27.6z"
   id="path16"
   style="fill:#ecdbc1;fill-opacity:1" />
		</g>
		<g
   class="st1"
   id="g36"
   style="fill:#ecdbc1;fill-opacity:1">
			<path
   class="st2"
   d="M40.9,28.2c0.4,0,0.8-0.1,1.1-0.4c0.3-0.3,0.5-0.7,0.5-1.1V13.3c0-0.4-0.2-0.8-0.5-1.1     c-0.3-0.3-0.7-0.4-1.1-0.4h-0.3v-0.2h5.3v0.2h-0.3c-0.6,0-1,0.3-1.3,0.8C44.1,12.8,44,13,44,13.3v14.5h3.5c1.2,0,2.1-0.3,2.7-0.8     c0.6-0.5,1.2-1.3,1.6-2.4H52l-1.4,3.9H40.6v-0.2H40.9z"
   id="path20"
   style="fill:#ecdbc1;fill-opacity:1" />
			<path
   class="st2"
   d="M70.1,28.2h0.2v0.2h-5.5v-0.2H65c0.3,0,0.6-0.1,0.8-0.3c0.2-0.2,0.3-0.4,0.3-0.6c0-0.2,0-0.4-0.1-0.6     l-1.6-4.1h-6.5l-1.6,4.1c-0.1,0.2-0.1,0.4-0.1,0.6s0.1,0.4,0.3,0.6c0.2,0.2,0.4,0.3,0.8,0.3h0.2v0.2h-4.9v-0.2h0.2     c0.4,0,0.8-0.1,1.2-0.4c0.4-0.3,0.7-0.6,0.9-1.1l5.5-13c0.6-1.3,0.9-2.1,0.9-2.5h0.2L68,26.7c0.2,0.5,0.5,0.9,0.9,1.1     C69.3,28.1,69.7,28.2,70.1,28.2z M58.2,21.9h6l-2.9-7.8L58.2,21.9z"
   id="path22"
   style="fill:#ecdbc1;fill-opacity:1" />
			<path
   class="st2"
   d="M77.8,28.2c0.4,0,0.8-0.1,1.1-0.4c0.3-0.3,0.5-0.7,0.5-1.1V13.3c0-0.4-0.2-0.8-0.5-1.1     c-0.3-0.3-0.7-0.4-1.1-0.4h-0.3v-0.2h5.3v0.2h-0.3c-0.4,0-0.8,0.1-1.1,0.4S81,12.8,81,13.3v13.5c0,0.4,0.2,0.8,0.5,1.1     c0.3,0.3,0.7,0.4,1.1,0.4h0.3v0.2h-5.3v-0.2H77.8z"
   id="path24"
   style="fill:#ecdbc1;fill-opacity:1" />
			<path
   class="st2"
   d="M85.7,27.5c0-0.2-0.1-0.7-0.1-1.3s0.1-1.3,0.4-2.1h0.2c0,0.2,0,0.4,0,0.5c0,1,0.3,1.8,0.9,2.5     c0.6,0.7,1.4,1,2.4,1c1,0,1.9-0.3,2.5-0.9c0.7-0.6,1-1.4,1-2.3s-0.3-1.7-0.9-2.3l-4.7-4.3c-0.9-0.8-1.3-1.8-1.3-2.9     c0-1.1,0.4-2.1,1.2-2.9s1.8-1.2,3.1-1.2c0.6,0,1.3,0.1,2.1,0.2h0.9v3h-0.2c0-0.8-0.3-1.4-0.8-1.8c-0.5-0.5-1.2-0.7-2-0.7     s-1.5,0.3-2.1,0.8c-0.6,0.5-0.8,1.2-0.8,2.1s0.3,1.5,1,2.1l4.8,4.4c0.8,0.7,1.2,1.8,1.2,3.1c0,1.3-0.4,2.4-1.2,3.2     c-0.8,0.8-1.9,1.2-3.3,1.2c-0.7,0-1.5-0.1-2.3-0.3C86.8,28.3,86.2,27.9,85.7,27.5z"
   id="path26"
   style="fill:#ecdbc1;fill-opacity:1" />
			<path
   class="st2"
   d="M110.1,13.7c0-0.4-0.1-0.7-0.4-1c-0.3-0.3-0.6-0.4-1-0.4h-4.6v14.5c0,0.4,0.2,0.8,0.5,1.1     c0.3,0.3,0.7,0.4,1.1,0.4h0.3v0.2h-5.3v-0.2h0.3c0.4,0,0.8-0.1,1.1-0.4c0.3-0.3,0.5-0.6,0.5-1V12.2h-4.6c-0.4,0-0.7,0.2-1,0.4     c-0.3,0.3-0.4,0.6-0.4,1v0.4l-0.2,0v-3.1c0.2,0.1,0.7,0.2,1.3,0.3c0.6,0.1,1.1,0.1,1.6,0.1h8.2c0.8,0,1.5-0.1,2-0.2     c0.5-0.1,0.8-0.2,1-0.3v3.1l-0.2,0V13.7z"
   id="path28"
   style="fill:#ecdbc1;fill-opacity:1" />
			<path
   class="st2"
   d="M133.8,32.6c-0.7,0.2-1.3,0.3-1.8,0.3s-1,0-1.4-0.1s-0.8-0.2-1.3-0.4c-0.5-0.2-0.9-0.4-1.3-0.6     c-0.4-0.2-0.8-0.5-1.2-0.9c-0.7-0.6-1.4-1.2-2-1.9s-1.8-2-3.5-3.9c-1.7-1.9-2.9-3.2-3.4-3.8c-0.6-0.6-1-1-1.3-1V20     c0.9,0,1.6,0,1.9-0.1c0.3,0,0.7-0.1,1-0.2c0.4-0.1,0.7-0.2,0.9-0.4c1-0.6,1.4-1.6,1.4-3.1c0-1.2-0.3-2.1-0.8-2.8     c-0.5-0.7-1.3-1.1-2.2-1.1h-3v14.5c0,0.4,0.1,0.8,0.4,1.1c0.3,0.3,0.7,0.5,1.1,0.5h0.3l0,0.2h-5.3v-0.2h0.3     c0.4,0,0.8-0.1,1.1-0.4c0.3-0.3,0.5-0.6,0.5-1.1V13.3c0-0.4-0.2-0.8-0.5-1.1c-0.3-0.3-0.7-0.4-1.1-0.4h-0.3v-0.2h6.5     c1.4,0,2.6,0.4,3.4,1.2c0.9,0.8,1.3,1.9,1.3,3.2s-0.4,2.4-1.2,3.4c-0.8,0.9-1.8,1.4-2.9,1.4h0c0.5,0.6,1.2,1.3,1.9,2     c2.8,3.1,4.6,5,5.4,5.8c0.8,0.8,1.5,1.4,2.1,2c0.6,0.5,1.1,0.9,1.6,1.1c1,0.5,1.9,0.8,2.8,0.8c0.2,0,0.4,0,0.6,0V32.6z"
   id="path30"
   style="fill:#ecdbc1;fill-opacity:1" />
			<path
   class="st2"
   d="M128.4,28.2c0.4,0,0.8-0.1,1.1-0.4c0.3-0.3,0.5-0.7,0.5-1.1V13.3c0-0.4-0.2-0.8-0.5-1.1     c-0.3-0.3-0.7-0.4-1.1-0.4H128v-0.2h5.3v0.2H133c-0.4,0-0.8,0.1-1.1,0.4c-0.3,0.3-0.5,0.6-0.5,1.1v13.5c0,0.4,0.2,0.8,0.5,1.1     c0.3,0.3,0.7,0.4,1.1,0.4h0.3v0.2H128v-0.2H128.4z"
   id="path32"
   style="fill:#ecdbc1;fill-opacity:1" />
			<path
   class="st2"
   d="M152.2,28.2h0.2v0.2h-5.5v-0.2h0.2c0.3,0,0.6-0.1,0.8-0.3c0.2-0.2,0.3-0.4,0.3-0.6c0-0.2,0-0.4-0.1-0.6     l-1.6-4.1h-6.5l-1.6,4.1c-0.1,0.2-0.1,0.4-0.1,0.6s0.1,0.4,0.3,0.6c0.2,0.2,0.4,0.3,0.8,0.3h0.2v0.2h-4.9v-0.2h0.2     c0.4,0,0.8-0.1,1.2-0.4c0.4-0.3,0.7-0.6,0.9-1.1l5.5-13c0.6-1.3,0.9-2.1,0.9-2.5h0.2l6.5,15.5c0.2,0.5,0.5,0.9,0.9,1.1     C151.3,28.1,151.7,28.2,152.2,28.2z M140.2,21.9h6l-2.9-7.8L140.2,21.9z"
   id="path34"
   style="fill:#ecdbc1;fill-opacity:1" />
		</g>
		<g
   class="st1"
   id="g40"
   style="fill:#ecdbc1;fill-opacity:1">
			<path
   class="st2"
   d="M23.6,38.8l-2.5,5.6h-0.4l-2.5-5.6h0.4l2.3,5.1l2.3-5.1H23.6z"
   id="path38"
   style="fill:#ecdbc1;fill-opacity:1" />
		</g>
		<g
   class="st1"
   id="g54"
   style="fill:#ecdbc1;fill-opacity:1">
			<path
   class="st2"
   d="M27.8,42.8h-3.2l-0.7,1.6h-0.4l2.6-5.6h0.4l2.6,5.6h-0.4L27.8,42.8z M27.6,42.5l-1.5-3.2l-1.5,3.2H27.6z"
   id="path42"
   style="fill:#ecdbc1;fill-opacity:1" />
			<path
   class="st2"
   d="M34.2,42c0.2,0.2,0.3,0.6,0.3,0.9c0,0.5-0.2,0.8-0.5,1.1s-0.9,0.4-1.5,0.4h-2.5v-5.6h2.3     c0.6,0,1.1,0.1,1.4,0.4c0.3,0.2,0.5,0.6,0.5,1.1c0,0.3-0.1,0.6-0.3,0.8s-0.4,0.4-0.7,0.5C33.7,41.6,34,41.8,34.2,42z M30.4,39.2     v2.2h1.9c0.5,0,0.9-0.1,1.1-0.3c0.3-0.2,0.4-0.5,0.4-0.8c0-0.4-0.1-0.6-0.4-0.8c-0.3-0.2-0.6-0.3-1.1-0.3H30.4z M33.7,43.8     c0.3-0.2,0.4-0.5,0.4-0.9S34,42.2,33.7,42s-0.7-0.3-1.2-0.3h-2.1v2.3h2.1C33,44.1,33.4,44,33.7,43.8z"
   id="path44"
   style="fill:#ecdbc1;fill-opacity:1" />
			<path
   class="st2"
   d="M39.8,44.4l-1.3-1.9c-0.2,0-0.4,0-0.5,0h-1.6v1.8H36v-5.6h2c0.7,0,1.3,0.2,1.7,0.5c0.4,0.3,0.6,0.8,0.6,1.4     c0,0.4-0.1,0.8-0.3,1.1c-0.2,0.3-0.6,0.5-1,0.6l1.4,2H39.8z M38,42.2c0.6,0,1.1-0.1,1.4-0.4c0.3-0.3,0.5-0.6,0.5-1.1     s-0.2-0.9-0.5-1.1c-0.3-0.3-0.8-0.4-1.4-0.4h-1.6v3H38z"
   id="path46"
   style="fill:#ecdbc1;fill-opacity:1" />
			<path
   class="st2"
   d="M41.7,38.8h0.4v5.6h-0.4V38.8z"
   id="path48"
   style="fill:#ecdbc1;fill-opacity:1" />
			<path
   class="st2"
   d="M48.1,41.6h0.4v2.1c-0.2,0.2-0.5,0.4-0.9,0.5c-0.3,0.1-0.7,0.2-1.1,0.2c-0.6,0-1.1-0.1-1.5-0.4s-0.8-0.6-1-1     c-0.3-0.4-0.4-0.9-0.4-1.5c0-0.5,0.1-1,0.4-1.5c0.3-0.4,0.6-0.8,1-1c0.4-0.2,0.9-0.4,1.5-0.4c0.4,0,0.8,0.1,1.1,0.2     c0.3,0.1,0.6,0.3,0.9,0.6l-0.3,0.3c-0.2-0.2-0.5-0.4-0.8-0.5c-0.3-0.1-0.6-0.2-1-0.2c-0.5,0-0.9,0.1-1.3,0.3     c-0.4,0.2-0.7,0.5-0.9,0.9S44,41.2,44,41.6c0,0.5,0.1,0.9,0.3,1.3c0.2,0.4,0.5,0.7,0.9,0.9c0.4,0.2,0.8,0.3,1.3,0.3     c0.6,0,1.2-0.2,1.6-0.5V41.6z"
   id="path50"
   style="fill:#ecdbc1;fill-opacity:1" />
			<path
   class="st2"
   d="M53.7,42.8h-3.2l-0.7,1.6h-0.4l2.6-5.6h0.4l2.6,5.6h-0.4L53.7,42.8z M53.6,42.5l-1.5-3.2l-1.5,3.2H53.6z"
   id="path52"
   style="fill:#ecdbc1;fill-opacity:1" />
		</g>
		<path
   class="st3"
   d="M75.4,2V1.9l0,0c0-0.1,0-0.2,0-0.3c0,0,0-0.1,0-0.1c0.2-0.5,0.7-1,1.2-1.2C77,0.1,77.5,0,77.9,0h6.2    c0.4,0,0.8,0.1,1.2,0.2l0.1,0.1l0.1,0.1c0,0,0.1,0,0.1,0.1l0.1,0.1l0,0L86,0.7l0.1,0.1c0.1,0.1,0.3,0.3,0.3,0.4    c0,0.1,0.1,0.2,0.1,0.2c0,0,0,0.1,0,0.1c0,0.1,0,0.2,0.1,0.3c0,0,0,0.1,0,0.1l0,0v0.1c0,0.1,0,0.2,0,0.3s0,0.1,0,0.1    c-0.1,0.3-0.3,0.5-0.5,0.8c0,0-0.1,0.1-0.1,0.1l0,0l-0.1,0.1c-0.1,0.1-0.1,0.1-0.2,0.1c0,0-0.1,0.1-0.1,0.1h-0.1l-0.2,0.1h-0.1    l0,0c-0.2,0.1-0.4,0.1-0.7,0.2h-6.7c-0.2,0-0.4,0-0.6-0.1l0,0h-0.1c-0.4-0.1-0.7-0.3-1-0.5C75.7,3,75.5,2.5,75.4,2z"
   id="path56" />
		<path
   class="st3"
   d="M44.1,3.9h26.2c1,0.1,2-0.5,2.4-1.4c0.1-0.2,0.1-0.3,0.1-0.5l0,0c-0.2-1.2-1.3-2.1-2.5-2H44.1    c-1-0.1-2,0.5-2.4,1.4c-0.1,0.2-0.1,0.4-0.1,0.5l0,0C41.7,3.2,42.8,4.1,44.1,3.9z"
   id="path58" />
		<path
   class="st3"
   d="M27.8,2V1.9l0,0l0.1-0.3c0,0,0-0.1,0-0.1c0.2-0.5,0.6-1,1.1-1.2C29.4,0.1,29.9,0,30.3,0h6.2    c1.2-0.1,2.4,0.8,2.5,2c-0.2,1.2-1.3,2.1-2.5,2h-6.2c-0.6,0-1.3-0.2-1.8-0.6C28.1,3.1,27.8,2.6,27.8,2z"
   id="path60" />
	</g>
</g>
</svg>
