<svg xmlns="http://www.w3.org/2000/svg" viewBox="0 0 115.65 101.87"><defs><style>.cls-1{fill:#1a3950;}.cls-2,.cls-3{fill:#ebddc7;}.cls-3{fill-rule:evenodd;}</style></defs><g id="Layer_2" data-name="Layer 2"><g id="Layer_1-2" data-name="Layer 1"><rect class="cls-1" width="115.65" height="101.87"/><path class="cls-2" d="M39.91,18.55a6.72,6.72,0,0,1,2-.87,7.3,7.3,0,0,1,1.84-.32h.9v.25a6.58,6.58,0,0,0-2.14.44,6.24,6.24,0,0,0-1.63.93,6.31,6.31,0,0,0-1.25,1.38,13.61,13.61,0,0,0-.94,1.47c-.21.4-.47.92-.76,1.55L31.16,38.12a8.93,8.93,0,0,0-.9,2.5H30L23.23,25.08a2.51,2.51,0,0,0-.94-1.16,2.19,2.19,0,0,0-1.2-.37H20.9V23.3h5.45v.25h-.21a.93.93,0,0,0-1,.68.87.87,0,0,0-.05.34,1.29,1.29,0,0,0,.12.48l5.07,12.71,6-14.38A10.64,10.64,0,0,1,39.91,18.55Z"/><path class="cls-2" d="M40.3,40a1.47,1.47,0,0,0,1.08-.45,1.53,1.53,0,0,0,.47-1.08V25.05A1.51,1.51,0,0,0,41.38,24a1.49,1.49,0,0,0-1.08-.43H40V23.3H45.3v.25H45A1.49,1.49,0,0,0,43.9,24a1.51,1.51,0,0,0-.47,1.07V38.51a1.44,1.44,0,0,0,.46,1.08A1.51,1.51,0,0,0,45,40h.32v.24H40V40Z"/><path class="cls-2" d="M48.5,40a1.47,1.47,0,0,0,1.08-.45,1.58,1.58,0,0,0,.47-1.08V25.08A1.58,1.58,0,0,0,49.58,24a1.47,1.47,0,0,0-1.08-.45h-.32V23.3h5.31v.25h-.31a1.49,1.49,0,0,0-1.34.75,1.52,1.52,0,0,0-.21.78V39.53h3.46a4.19,4.19,0,0,0,2.75-.8,5.92,5.92,0,0,0,1.57-2.38h.24l-1.4,3.93H48.18V40Z"/><path class="cls-2" d="M61.76,40a1.47,1.47,0,0,0,1.08-.45,1.59,1.59,0,0,0,.48-1.08V25.08A1.59,1.59,0,0,0,62.84,24a1.47,1.47,0,0,0-1.08-.45h-.31V23.3h5.31v.25h-.32a1.47,1.47,0,0,0-1.33.75,1.44,1.44,0,0,0-.22.78V39.53h3.47a4.15,4.15,0,0,0,2.74-.8,5.93,5.93,0,0,0,1.58-2.38h.24l-1.41,3.93H61.45V40Z"/><path class="cls-2" d="M91,40h.19v.24H85.73V40h.21a.92.92,0,0,0,.77-.33,1,1,0,0,0,.25-.62,2,2,0,0,0-.09-.58l-1.56-4.12H78.77l-1.63,4.15a1.9,1.9,0,0,0-.1.57,1,1,0,0,0,.26.6.9.9,0,0,0,.76.33h.22v.24H73.41V40h.21a2.11,2.11,0,0,0,1.19-.39,2.78,2.78,0,0,0,1-1.14l5.48-13a8.91,8.91,0,0,0,.9-2.49h.22l6.5,15.54a2.58,2.58,0,0,0,.92,1.14A2.12,2.12,0,0,0,91,40ZM79.06,33.66h6l-2.91-7.78Z"/><path class="cls-2" d="M64.69,76.82l-2.49,5.6h-.41l-2.5-5.6h.45L62,81.89l2.27-5.07Z"/><path class="cls-2" d="M68.89,80.84H65.64l-.71,1.58h-.44l2.58-5.6h.41l2.57,5.6h-.44Zm-.15-.34-1.47-3.23L65.8,80.5Z"/><path class="cls-2" d="M75.31,80a1.39,1.39,0,0,1,.32.94,1.3,1.3,0,0,1-.52,1.1,2.66,2.66,0,0,1-1.55.38H71.07v-5.6H73.4a2.35,2.35,0,0,1,1.42.37,1.23,1.23,0,0,1,.51,1.06,1.28,1.28,0,0,1-.25.81,1.36,1.36,0,0,1-.69.47A1.59,1.59,0,0,1,75.31,80Zm-3.84-2.83V79.4h1.92a1.93,1.93,0,0,0,1.13-.28,1,1,0,0,0,.39-.84,1,1,0,0,0-.39-.82,1.92,1.92,0,0,0-1.13-.29Zm3.33,4.61a1,1,0,0,0,.42-.87A1,1,0,0,0,74.8,80a2.21,2.21,0,0,0-1.24-.28H71.47v2.31h2.09A2.2,2.2,0,0,0,74.8,81.78Z"/><path class="cls-2" d="M81,82.42l-1.33-1.87c-.2,0-.38,0-.55,0h-1.6v1.83h-.41v-5.6h2a2.53,2.53,0,0,1,1.66.5,1.71,1.71,0,0,1,.6,1.39A1.83,1.83,0,0,1,81,79.82a1.76,1.76,0,0,1-1,.64l1.4,2Zm-1.88-2.19a2.05,2.05,0,0,0,1.37-.4,1.39,1.39,0,0,0,.47-1.12,1.41,1.41,0,0,0-.47-1.13,2.11,2.11,0,0,0-1.37-.39h-1.6v3Z"/><path class="cls-2" d="M82.84,76.82h.41v5.6h-.41Z"/><path class="cls-2" d="M89.2,79.64h.39v2.1a2.56,2.56,0,0,1-.89.54,3.4,3.4,0,0,1-1.11.18,3,3,0,0,1-1.5-.37,2.66,2.66,0,0,1-1-1,3,3,0,0,1,0-2.92,2.66,2.66,0,0,1,1-1,3,3,0,0,1,1.51-.37,3.15,3.15,0,0,1,1.13.2,2.43,2.43,0,0,1,.89.57l-.26.27a2.15,2.15,0,0,0-.79-.51,2.93,2.93,0,0,0-1-.15,2.58,2.58,0,0,0-1.3.32,2.27,2.27,0,0,0-.91.88,2.47,2.47,0,0,0-.33,1.26,2.47,2.47,0,0,0,1.24,2.14,2.58,2.58,0,0,0,1.3.32,2.45,2.45,0,0,0,1.59-.51Z"/><path class="cls-2" d="M94.85,80.84H91.6l-.71,1.58h-.44L93,76.82h.41L96,82.42h-.44Zm-.15-.34-1.47-3.23L91.76,80.5Z"/><path class="cls-3" d="M45.76,80l0-.09h0c0-.07,0-.14,0-.22s0-.05,0-.07a1.58,1.58,0,0,1,.84-.85,2.42,2.42,0,0,1,1-.22h4.78a2.57,2.57,0,0,1,.93.18l.11,0,.1.06.1,0,.08.06,0,0,.07.06.08.07a1.4,1.4,0,0,1,.27.33l.09.18,0,.1a1.38,1.38,0,0,1,0,.2.34.34,0,0,1,0,.1h0l0,.1a1.7,1.7,0,0,1,0,.22s0,0,0,.08a1.36,1.36,0,0,1-.39.55l-.07.06,0,0-.07,0-.14.09-.08,0s0,0-.06,0l-.14.06-.08,0h0a2.65,2.65,0,0,1-.52.11H47.64a3.57,3.57,0,0,1-.47,0h-.09a2.27,2.27,0,0,1-.75-.36A1.3,1.3,0,0,1,45.76,80Z"/><path class="cls-3" d="M21.61,81.42H41.84a1.93,1.93,0,0,0,1.86-1.07,1.23,1.23,0,0,0,.07-.39h0c0-.81-.87-1.46-1.93-1.46H21.61a1.91,1.91,0,0,0-1.85,1.06,1.1,1.1,0,0,0-.08.4h0C19.68,80.77,20.55,81.42,21.61,81.42Z"/><path class="cls-2" d="M21.37,66.3a1.47,1.47,0,0,0,1.08-.45,1.53,1.53,0,0,0,.47-1.08V51.31a1.54,1.54,0,0,0-1.55-1.5h-.32v-.25h5.32v.25h-.32a1.54,1.54,0,0,0-1.55,1.5V64.77A1.44,1.44,0,0,0,25,65.85a1.51,1.51,0,0,0,1.09.45h.32v.24H21.05V66.3Z"/><path class="cls-2" d="M29.28,65.55a7.27,7.27,0,0,1-.08-1.31,6.66,6.66,0,0,1,.37-2.07h.22a4.89,4.89,0,0,0,0,.54,3.52,3.52,0,0,0,.9,2.46,3.08,3.08,0,0,0,2.38,1,3.56,3.56,0,0,0,2.51-.92,3.06,3.06,0,0,0,1-2.32,2.93,2.93,0,0,0-1-2.26l-4.65-4.32a3.84,3.84,0,0,1-1.31-2.94,4.12,4.12,0,0,1,1.15-2.94,4.07,4.07,0,0,1,3.11-1.23,9.85,9.85,0,0,1,2.09.25h1v3H36.7a2.3,2.3,0,0,0-.79-1.82,3,3,0,0,0-2-.68,2.84,2.84,0,0,0-2.07.83A2.76,2.76,0,0,0,31,52.84a2.84,2.84,0,0,0,1,2.13l4.78,4.42a3.93,3.93,0,0,1,1.21,3,4.34,4.34,0,0,1-1.23,3.19,4.46,4.46,0,0,1-3.3,1.25,8.59,8.59,0,0,1-2.27-.33A4,4,0,0,1,29.28,65.55Z"/><path class="cls-2" d="M53.63,51.72a1.4,1.4,0,0,0-.42-1,1.35,1.35,0,0,0-1-.44h-4.6V64.79a1.55,1.55,0,0,0,1.55,1.51h.31v.24H44.19V66.3h.32a1.56,1.56,0,0,0,1.55-1.48V50.27H41.45a1.36,1.36,0,0,0-1,.44,1.42,1.42,0,0,0-.4,1v.41l-.24,0V49.1a5.92,5.92,0,0,0,1.26.29,10.1,10.1,0,0,0,1.65.15h8.19a9,9,0,0,0,2-.18,7,7,0,0,0,1-.26v3.06l-.24,0Z"/><path class="cls-2" d="M77.32,70.66a7.15,7.15,0,0,1-1.8.27,8.28,8.28,0,0,1-1.4-.1,6.15,6.15,0,0,1-1.3-.37,9,9,0,0,1-2.51-1.54,16.18,16.18,0,0,1-2-1.94c-.61-.7-1.78-2-3.51-3.92l-3.44-3.82c-.57-.63-1-1-1.31-1V58a18.55,18.55,0,0,0,1.88-.06,6.16,6.16,0,0,0,1-.22,2.72,2.72,0,0,0,.89-.42,3.34,3.34,0,0,0,1.43-3.06,4.68,4.68,0,0,0-.78-2.83,2.67,2.67,0,0,0-2.22-1.1h-3V64.77a1.55,1.55,0,0,0,1.55,1.53h.29l0,.24H55.79V66.3h.31a1.53,1.53,0,0,0,1.07-.44,1.5,1.5,0,0,0,.48-1.07V51.33a1.53,1.53,0,0,0-.47-1.08,1.5,1.5,0,0,0-1.08-.44h-.31v-.25h6.54a4.87,4.87,0,0,1,3.44,1.2,4.14,4.14,0,0,1,1.29,3.18,5.09,5.09,0,0,1-1.19,3.4A3.66,3.66,0,0,1,63,58.75h0l1.87,2c2.79,3.09,4.59,5,5.38,5.82s1.49,1.45,2.1,2a9.53,9.53,0,0,0,1.61,1.12,5.91,5.91,0,0,0,2.84.78,3.79,3.79,0,0,0,.58,0Z"/><path class="cls-2" d="M71.91,66.3A1.47,1.47,0,0,0,73,65.85a1.53,1.53,0,0,0,.47-1.08V51.31a1.54,1.54,0,0,0-1.55-1.5H71.6v-.25h5.31v.25h-.32a1.49,1.49,0,0,0-1.08.43A1.53,1.53,0,0,0,75,51.31V64.77a1.48,1.48,0,0,0,.46,1.08,1.51,1.51,0,0,0,1.09.45h.32v.24H71.6V66.3Z"/><path class="cls-2" d="M95.7,66.3h.2v.24H90.44V66.3h.22a.9.9,0,0,0,.76-.33,1,1,0,0,0,.26-.62,1.69,1.69,0,0,0-.1-.58L90,60.65H83.48l-1.62,4.14a1.71,1.71,0,0,0-.1.57A1,1,0,0,0,82,66a.92.92,0,0,0,.77.33H83v.24H78.12V66.3h.22a2.13,2.13,0,0,0,1.19-.39,2.76,2.76,0,0,0,.94-1.14l5.48-13a8.82,8.82,0,0,0,.9-2.5h.22l6.5,15.55a2.65,2.65,0,0,0,.92,1.14A2.15,2.15,0,0,0,95.7,66.3ZM83.77,59.92h6l-2.91-7.79Z"/></g></g></svg>