<svg xmlns="http://www.w3.org/2000/svg" viewBox="0 0 157.17 101.87"><defs><style>.cls-1{fill:#1a3950;}.cls-2,.cls-3{fill:#ebddc7;}.cls-3{fill-rule:evenodd;}</style></defs><g id="Layer_2" data-name="Layer 2"><g id="Layer_1-2" data-name="Layer 1"><rect class="cls-1" width="157.17" height="101.87"/><path class="cls-2" d="M37.27,50.77a4.74,4.74,0,0,1,1.42-.63A5.35,5.35,0,0,1,40,49.91h.65v.18a4.6,4.6,0,0,0-1.54.32,4.52,4.52,0,0,0-1.18.67,5,5,0,0,0-.91,1,11.34,11.34,0,0,0-.67,1.06c-.16.29-.34.66-.55,1.12L30.94,64.92a6.25,6.25,0,0,0-.64,1.8h-.16L25.21,55.49a1.74,1.74,0,0,0-.67-.84,1.64,1.64,0,0,0-.87-.27h-.14v-.17h3.94v.17h-.15a.68.68,0,0,0-.7.49.62.62,0,0,0,0,.25,1,1,0,0,0,.09.35l3.66,9.18,4.35-10.39A7.63,7.63,0,0,1,37.27,50.77Z"/><path class="cls-2" d="M37.55,66.3a1.06,1.06,0,0,0,.78-.32,1.12,1.12,0,0,0,.34-.78V55.47a1.13,1.13,0,0,0-1.12-1.09h-.23v-.17h3.84v.17h-.23a1.13,1.13,0,0,0-1.12,1.09V65.2a1,1,0,0,0,.34.78,1.1,1.1,0,0,0,.78.32h.23v.18H37.32V66.3Z"/><path class="cls-2" d="M43.48,66.3a1.1,1.1,0,0,0,.78-.32,1.16,1.16,0,0,0,.34-.78V55.49a1.12,1.12,0,0,0-.34-.78,1.07,1.07,0,0,0-.78-.33h-.23v-.17h3.84v.17h-.23a1.06,1.06,0,0,0-1,.54,1.07,1.07,0,0,0-.16.57V65.93h2.5a2.94,2.94,0,0,0,2-.58,4.13,4.13,0,0,0,1.14-1.71h.18l-1,2.84H43.25V66.3Z"/><path class="cls-2" d="M53.06,66.3a1.06,1.06,0,0,0,.78-.32,1.17,1.17,0,0,0,.35-.78V55.49a1.13,1.13,0,0,0-.35-.78,1,1,0,0,0-.78-.33h-.22v-.17h3.83v.17h-.22a1.07,1.07,0,0,0-1,.54,1.17,1.17,0,0,0-.16.57V65.93h2.51a2.94,2.94,0,0,0,2-.58A4.13,4.13,0,0,0,61,63.64h.18l-1,2.84H52.84V66.3Z"/><path class="cls-2" d="M74.18,66.3h.14v.18H70.38V66.3h.16a.65.65,0,0,0,.55-.24.72.72,0,0,0,.18-.44,1.23,1.23,0,0,0-.07-.42l-1.12-3H65.35l-1.17,3a1.23,1.23,0,0,0-.07.42.72.72,0,0,0,.18.43.65.65,0,0,0,.55.24H65v.18H61.48V66.3h.15a1.49,1.49,0,0,0,.86-.28,2.09,2.09,0,0,0,.69-.82l4-9.43A6.54,6.54,0,0,0,67.79,54h.15l4.7,11.24a2,2,0,0,0,.67.82A1.52,1.52,0,0,0,74.18,66.3Zm-8.62-4.61h4.31l-2.1-5.63Z"/><path class="cls-2" d="M79.77,66.3a1.1,1.1,0,0,0,.79-.32,1.16,1.16,0,0,0,.34-.78V55.47a1.13,1.13,0,0,0-1.13-1.09h-.22v-.17h3.84v.17h-.23A1.13,1.13,0,0,0,82,55.47V65.2a1.07,1.07,0,0,0,.33.78,1.1,1.1,0,0,0,.79.32h.23v.18H79.55V66.3Z"/><path class="cls-2" d="M85.49,65.76a5.13,5.13,0,0,1,0-1,4.59,4.59,0,0,1,.26-1.49h.16c0,.13,0,.26,0,.39a2.57,2.57,0,0,0,.65,1.78,2.22,2.22,0,0,0,1.72.71A2.56,2.56,0,0,0,90,65.53a2.21,2.21,0,0,0,.71-1.67,2.13,2.13,0,0,0-.68-1.64L86.68,59.1a2.8,2.8,0,0,1-1-2.12,3,3,0,0,1,.84-2.13A2.93,2.93,0,0,1,88.82,54a7.41,7.41,0,0,1,1.51.18H91v2.15h-.16A1.63,1.63,0,0,0,90.28,55a2.15,2.15,0,0,0-1.46-.49,2.07,2.07,0,0,0-1.5.59,2.11,2.11,0,0,0,.1,3l3.45,3.18a2.88,2.88,0,0,1,.88,2.21,3.13,3.13,0,0,1-.9,2.31,3.2,3.2,0,0,1-2.38.9,6.14,6.14,0,0,1-1.64-.24A2.82,2.82,0,0,1,85.49,65.76Z"/><path class="cls-2" d="M103.09,55.77a1,1,0,0,0-.3-.73,1,1,0,0,0-.7-.33H98.76v10.5a1.06,1.06,0,0,0,.34.77,1,1,0,0,0,.78.32h.23v.18H96.27V66.3h.23a1.06,1.06,0,0,0,.78-.32,1.14,1.14,0,0,0,.34-.75V54.71H94.29a1,1,0,0,0-.71.33,1,1,0,0,0-.29.73v.29l-.18,0V53.87a5,5,0,0,0,.91.21,7.64,7.64,0,0,0,1.2.11h5.92a6.4,6.4,0,0,0,1.43-.13,4.89,4.89,0,0,0,.69-.19v2.21l-.17,0Z"/><path class="cls-2" d="M120.21,69.45a5.22,5.22,0,0,1-1.31.2,7.23,7.23,0,0,1-1-.07,4.65,4.65,0,0,1-.94-.27,6.87,6.87,0,0,1-.94-.47,6,6,0,0,1-.88-.65,12.11,12.11,0,0,1-1.46-1.4c-.44-.5-1.28-1.45-2.53-2.83l-2.49-2.76c-.41-.46-.73-.7-1-.72v-.17a12.47,12.47,0,0,0,1.36-.05,4.39,4.39,0,0,0,.73-.16,2,2,0,0,0,.65-.3,2.43,2.43,0,0,0,1-2.21,3.37,3.37,0,0,0-.57-2.05,1.9,1.9,0,0,0-1.6-.79h-2.18V65.2a1.13,1.13,0,0,0,1.13,1.1h.21v.18h-3.83V66.3h.22a1,1,0,0,0,.77-.32,1.08,1.08,0,0,0,.36-.77V55.49a1.13,1.13,0,0,0-.35-.78,1,1,0,0,0-.78-.33h-.22v-.17h4.73a3.55,3.55,0,0,1,2.48.86,3,3,0,0,1,.94,2.3,3.7,3.7,0,0,1-.86,2.45,2.65,2.65,0,0,1-2.11,1h0l1.35,1.47c2,2.23,3.31,3.64,3.89,4.21s1.08,1,1.51,1.41a6.23,6.23,0,0,0,1.17.81,4.21,4.21,0,0,0,2.05.57,3,3,0,0,0,.42,0Z"/><path class="cls-2" d="M116.3,66.3a1.1,1.1,0,0,0,.78-.32,1.12,1.12,0,0,0,.34-.78V55.47a1.06,1.06,0,0,0-.34-.77,1.1,1.1,0,0,0-.78-.32h-.23v-.17h3.84v.17h-.23a1.13,1.13,0,0,0-1.12,1.09V65.2a1.07,1.07,0,0,0,.33.78,1.14,1.14,0,0,0,.79.32h.23v.18h-3.84V66.3Z"/><path class="cls-2" d="M133.5,66.3h.14v.18h-3.95V66.3h.16a.64.64,0,0,0,.55-.24.74.74,0,0,0,.19-.44,1.25,1.25,0,0,0-.08-.42l-1.12-3h-4.73l-1.17,3a1.23,1.23,0,0,0-.07.42.72.72,0,0,0,.18.43.65.65,0,0,0,.55.24h.16v.18h-3.52V66.3H121a1.49,1.49,0,0,0,.85-.28,2,2,0,0,0,.69-.82l4-9.43A6.54,6.54,0,0,0,127.1,54h.16L132,65.2a2,2,0,0,0,.67.82A1.53,1.53,0,0,0,133.5,66.3Zm-8.63-4.61h4.31l-2.1-5.63Z"/><path class="cls-2" d="M64.43,73.37,62,78.94h-.41l-2.48-5.57h.44l2.25,5,2.25-5Z"/><path class="cls-2" d="M68.61,77.37H65.38l-.71,1.57h-.43l2.56-5.57h.4l2.56,5.57h-.44ZM68.46,77,67,73.82,65.54,77Z"/><path class="cls-2" d="M75,76.54a1.32,1.32,0,0,1,.31.93,1.26,1.26,0,0,1-.51,1.08,2.55,2.55,0,0,1-1.54.39H70.77V73.37h2.32a2.3,2.3,0,0,1,1.41.37A1.23,1.23,0,0,1,75,74.79a1.35,1.35,0,0,1-.25.81,1.44,1.44,0,0,1-.68.47A1.54,1.54,0,0,1,75,76.54Zm-3.81-2.82v2.22h1.9a1.89,1.89,0,0,0,1.12-.28,1.06,1.06,0,0,0,0-1.66,2,2,0,0,0-1.12-.28Zm3.3,4.58a1.1,1.1,0,0,0,0-1.73,2.2,2.2,0,0,0-1.23-.28H71.18v2.3h2.07A2.19,2.19,0,0,0,74.48,78.3Z"/><path class="cls-2" d="M80.61,78.94l-1.33-1.86a5.29,5.29,0,0,1-.54,0H77.15v1.82h-.4V73.37h2a2.52,2.52,0,0,1,1.65.5,1.69,1.69,0,0,1,.6,1.38,1.83,1.83,0,0,1-.34,1.11,1.8,1.8,0,0,1-1,.63l1.39,2Zm-1.87-2.18a2.06,2.06,0,0,0,1.36-.39,1.57,1.57,0,0,0,0-2.24,2.06,2.06,0,0,0-1.36-.39H77.15v3Z"/><path class="cls-2" d="M82.47,73.37h.41v5.57h-.41Z"/><path class="cls-2" d="M88.79,76.18h.39v2.08a2.4,2.4,0,0,1-.89.53,3.3,3.3,0,0,1-1.1.19,3.1,3.1,0,0,1-1.49-.37,2.66,2.66,0,0,1-1-1,2.94,2.94,0,0,1,0-2.89,2.66,2.66,0,0,1,1-1,3,3,0,0,1,1.5-.37,3.19,3.19,0,0,1,1.13.2,2.35,2.35,0,0,1,.87.57l-.25.27a2,2,0,0,0-.78-.51,2.93,2.93,0,0,0-1-.15,2.62,2.62,0,0,0-1.29.31,2.31,2.31,0,0,0-.9.88,2.53,2.53,0,0,0,0,2.5,2.38,2.38,0,0,0,.9.88,2.62,2.62,0,0,0,1.29.32,2.42,2.42,0,0,0,1.58-.51Z"/><path class="cls-2" d="M94.4,77.37H91.18l-.71,1.57H90l2.56-5.57H93l2.56,5.57h-.44ZM94.25,77l-1.46-3.21L91.34,77Z"/><path class="cls-3" d="M70.53,34.3H59.26a1.52,1.52,0,0,0-1.44,1,.15.15,0,0,0,0,.07,1.18,1.18,0,0,0,0,.2s0,.06,0,.09h0a1.17,1.17,0,0,0,.11.49,1.6,1.6,0,0,0,1.46.84h11.2A1.55,1.55,0,0,0,72,36a1.13,1.13,0,0,0,.06-.36,1.21,1.21,0,0,0-.46-.94A1.67,1.67,0,0,0,70.53,34.3Z"/><path class="cls-3" d="M81.53,34.3H74.9l-.09,0h0l-.09,0,0,0-.1,0-.07,0-.07,0-.06,0,0,0-.06.05,0,0-.06.05,0,0a1.4,1.4,0,0,0-.27.33h0l0,.09a1.24,1.24,0,0,0-.1.47A1.47,1.47,0,0,0,75.24,37h6.48l.1,0H82l.06,0,.08,0,.05,0,.1,0,.07,0,.07,0,.06,0,0,0,.06,0,0,0,.06-.05,0,0a1.44,1.44,0,0,0,.27-.34h0l0-.1h0a1.19,1.19,0,0,0,.1-.46A1.47,1.47,0,0,0,81.53,34.3Z"/><path class="cls-3" d="M97.44,34.3H86.24a1.55,1.55,0,0,0-1.51,1,1,1,0,0,0-.06.36h0A1.47,1.47,0,0,0,86.24,37h11.2a1.58,1.58,0,0,0,1.46-.84h0A.61.61,0,0,0,99,36a.64.64,0,0,1,0-.07l0-.2s0-.06,0-.09h0A1.46,1.46,0,0,0,97.44,34.3Z"/><path class="cls-3" d="M67,41.91,67,42h0l0,.2a.2.2,0,0,0,0,.07,1.42,1.42,0,0,1-.69.78,1.83,1.83,0,0,1-.82.19H61.52a1.88,1.88,0,0,1-.76-.16l-.09,0-.08,0-.08-.06-.07,0,0,0-.06,0-.07-.07a1,1,0,0,1-.21-.3,1.11,1.11,0,0,1-.07-.16l0-.09L60,42v-.1h0v-.09a1.77,1.77,0,0,1,0-.2.2.2,0,0,1,0-.07,1.16,1.16,0,0,1,.32-.5l.06-.06,0,0,.05,0,.12-.08.07,0,.05,0,.11-.05.07,0h0a1.85,1.85,0,0,1,.42-.11h4.14a2.33,2.33,0,0,1,.38,0h0l.05,0a1.74,1.74,0,0,1,.62.32A1.26,1.26,0,0,1,67,41.91Z"/><path class="cls-3" d="M86.6,40.59H70.17a1.55,1.55,0,0,0-1.51,1,1.13,1.13,0,0,0-.06.36h0a1.47,1.47,0,0,0,1.57,1.34H86.6a1.58,1.58,0,0,0,1.52-1,1.36,1.36,0,0,0,0-.36h0A1.47,1.47,0,0,0,86.6,40.59Z"/><path class="cls-3" d="M96.77,41.92V42h0l0,.2a.64.64,0,0,1,0,.07,1.39,1.39,0,0,1-.69.78,1.81,1.81,0,0,1-.82.2H91.32a1.35,1.35,0,1,1,0-2.67H95.2a1.7,1.7,0,0,1,1.11.39A1.22,1.22,0,0,1,96.77,41.92Z"/><path class="cls-3" d="M86.24,29.63H97.51a1.54,1.54,0,0,0,1.44-1,.13.13,0,0,0,0-.06,1.55,1.55,0,0,0,0-.21s0-.05,0-.08h0a1.21,1.21,0,0,0-.11-.49A1.59,1.59,0,0,0,97.44,27H86.24a1.55,1.55,0,0,0-1.51,1,1.13,1.13,0,0,0-.06.36,1.28,1.28,0,0,0,.46.95A1.72,1.72,0,0,0,86.24,29.63Z"/><path class="cls-3" d="M75.24,29.63h6.64l.08,0H82l.08,0h.05l.1,0,.07,0,.07,0,.06,0,0,0,.06-.05,0,0,.06-.06,0,0a1.4,1.4,0,0,0,.27-.33h0l0-.1a1.23,1.23,0,0,0,.1-.46A1.47,1.47,0,0,0,81.53,27H74.9l-.09,0h0l-.09,0h0l-.1,0-.07,0-.07,0-.06,0,0,0-.06,0,0,0-.06.06,0,0a1.22,1.22,0,0,0-.27.33h0s0,.07,0,.1h0a1.23,1.23,0,0,0-.1.46A1.47,1.47,0,0,0,75.24,29.63Z"/><path class="cls-3" d="M59.33,29.63h11.2a1.54,1.54,0,0,0,1.51-1,1,1,0,0,0,.06-.35h0A1.47,1.47,0,0,0,70.53,27H59.33a1.6,1.6,0,0,0-1.46.84h0a.5.5,0,0,0,0,.13.13.13,0,0,0,0,.06,1.55,1.55,0,0,0,0,.21s0,.05,0,.08h0A1.47,1.47,0,0,0,59.33,29.63Z"/><path class="cls-3" d="M89.8,22.23v-.09h0l0-.2s0-.05,0-.07a1.38,1.38,0,0,1,.68-.79,1.76,1.76,0,0,1,.83-.2h3.88A1.73,1.73,0,0,1,96,21l.09,0,.08.05.08.06.07,0s0,0,0,0l.06,0,.07.07a1,1,0,0,1,.21.31.87.87,0,0,1,.07.17l0,.09,0,.18v.09h0v.09a1.77,1.77,0,0,1,0,.2.17.17,0,0,1,0,.07,1.29,1.29,0,0,1-.32.52l-.06.05a0,0,0,0,1,0,0s0,0,0,.05l-.12.08-.07,0-.05,0-.11.05-.07,0h0a1.85,1.85,0,0,1-.42.11H91.32a2.33,2.33,0,0,1-.38,0h0l0,0a1.64,1.64,0,0,1-.61-.33A1.23,1.23,0,0,1,89.8,22.23Z"/><path class="cls-3" d="M70.17,23.57H86.61a1.56,1.56,0,0,0,1.51-1,1.51,1.51,0,0,0,.06-.37h0a1.48,1.48,0,0,0-1.57-1.35H70.17a1.55,1.55,0,0,0-1.51,1,1.09,1.09,0,0,0-.06.36h0A1.48,1.48,0,0,0,70.17,23.57Z"/><path class="cls-3" d="M60,22.21v-.08h0a1.42,1.42,0,0,1,0-.2.15.15,0,0,1,0-.07,1.44,1.44,0,0,1,.69-.79,1.72,1.72,0,0,1,.82-.2h3.88A1.48,1.48,0,0,1,67,22.21a1.48,1.48,0,0,1-1.58,1.36H61.57a1.67,1.67,0,0,1-1.11-.4A1.27,1.27,0,0,1,60,22.21Z"/></g></g></svg>