<?xml version="1.0" encoding="utf-8"?>
<!-- Generator: Adobe Illustrator 24.2.3, SVG Export Plug-In . SVG Version: 6.00 Build 0)  -->
<svg version="1.1" id="Layer_1" xmlns="http://www.w3.org/2000/svg" xmlns:xlink="http://www.w3.org/1999/xlink" x="0px" y="0px"
	 viewBox="0 0 136.4 74.5" style="enable-background:new 0 0 136.4 74.5;" xml:space="preserve">
<style type="text/css">
	.st0{enable-background:new    ;}
	.st1{fill:#1A3950;}
	.st2{fill-rule:evenodd;clip-rule:evenodd;fill:#1A3950;}
	.st3{fill-rule:evenodd;clip-rule:evenodd;fill:#EBDDC7;}
	.st4{fill-rule:evenodd;clip-rule:evenodd;fill:#EBDCC9;}
</style>
<g id="Layer_2_1_">
	<g id="Layer_1-2">
		<g class="st0">
			<path class="st1" d="M17,37c0.5-0.3,1.1-0.6,1.8-0.8c0.7-0.2,1.2-0.3,1.6-0.3c0.4,0,0.7,0,0.8,0v0.2c-0.7,0-1.3,0.2-1.9,0.4
				c-0.6,0.2-1.1,0.5-1.5,0.8c-0.4,0.3-0.8,0.7-1.1,1.2c-0.4,0.5-0.6,1-0.8,1.3c-0.2,0.4-0.4,0.8-0.7,1.4l-6,13.2
				c-0.5,1.2-0.8,1.9-0.8,2.2H8.2L2.1,42.9c-0.2-0.5-0.5-0.8-0.8-1c-0.4-0.2-0.7-0.3-1.1-0.3H0v-0.2h4.9v0.2H4.7
				c-0.4,0-0.7,0.2-0.9,0.6c0,0.1,0,0.2,0,0.3c0,0.1,0,0.3,0.1,0.4l4.5,11.4l5.4-12.9C14.7,39.4,15.7,37.9,17,37z"/>
			<path class="st1" d="M17.4,56.3c0.4,0,0.7-0.1,1-0.4c0.3-0.3,0.4-0.6,0.4-1v-12c0-0.4-0.2-0.7-0.4-1c-0.3-0.3-0.6-0.4-1-0.4h-0.3
				v-0.2h4.8v0.2h-0.3c-0.4,0-0.7,0.1-1,0.4c-0.3,0.3-0.4,0.6-0.4,1v12c0,0.4,0.1,0.7,0.4,1c0.3,0.3,0.6,0.4,1,0.4h0.3v0.2h-4.8
				v-0.2H17.4z"/>
		</g>
		<g class="st0">
			<path class="st1" d="M24.7,56.3c0.4,0,0.7-0.1,1-0.4c0.3-0.3,0.4-0.6,0.4-1v-12c0-0.4-0.2-0.7-0.4-1c-0.3-0.3-0.6-0.4-1-0.4h-0.3
				v-0.2h4.8v0.2h-0.3c-0.5,0-0.9,0.2-1.2,0.7c-0.1,0.2-0.2,0.4-0.2,0.7v12.9h3.1c1.1,0,1.9-0.2,2.5-0.7c0.6-0.5,1-1.2,1.4-2.1h0.2
				l-1.3,3.5h-9v-0.2H24.7z"/>
		</g>
		<g class="st0">
			<path class="st1" d="M36.6,56.3c0.4,0,0.7-0.1,1-0.4c0.3-0.3,0.4-0.6,0.4-1v-12c0-0.4-0.2-0.7-0.4-1c-0.3-0.3-0.6-0.4-1-0.4h-0.3
				v-0.2H41v0.2h-0.3c-0.5,0-0.9,0.2-1.2,0.7c-0.1,0.2-0.2,0.4-0.2,0.7v12.9h3.1c1.1,0,1.9-0.2,2.5-0.7s1-1.2,1.4-2.1h0.2l-1.3,3.5
				h-9v-0.2H36.6z"/>
			<path class="st1" d="M62.7,56.3h0.2v0.2H58v-0.2h0.2c0.3,0,0.5-0.1,0.7-0.3c0.2-0.2,0.2-0.4,0.2-0.6s0-0.3-0.1-0.5l-1.4-3.7h-5.9
				l-1.5,3.7c-0.1,0.2-0.1,0.3-0.1,0.5c0,0.2,0.1,0.3,0.2,0.5c0.2,0.2,0.4,0.3,0.7,0.3h0.2v0.2H47v-0.2h0.2c0.4,0,0.7-0.1,1.1-0.3
				c0.3-0.2,0.6-0.6,0.8-1L54,43.2c0.5-1.2,0.8-1.9,0.8-2.2H55l5.8,13.9c0.2,0.4,0.5,0.8,0.8,1C62,56.2,62.3,56.3,62.7,56.3z
				 M52,50.6h5.3l-2.6-7L52,50.6z"/>
			<path class="st1" d="M69.6,56.3c0.4,0,0.7-0.1,1-0.4c0.3-0.3,0.4-0.6,0.4-1v-12c0-0.4-0.2-0.7-0.4-1c-0.3-0.3-0.6-0.4-1-0.4h-0.3
				v-0.2h4.8v0.2h-0.3c-0.4,0-0.7,0.1-1,0.4c-0.3,0.3-0.4,0.6-0.4,1v12c0,0.4,0.1,0.7,0.4,1c0.3,0.3,0.6,0.4,1,0.4h0.3v0.2h-4.8
				v-0.2H69.6z"/>
			<path class="st1" d="M76.7,55.6c0-0.2-0.1-0.6-0.1-1.2c0-0.6,0.1-1.2,0.3-1.8h0.2c0,0.2,0,0.3,0,0.5c0,0.9,0.3,1.6,0.8,2.2
				c0.5,0.6,1.2,0.9,2.1,0.9c0.9,0,1.7-0.3,2.2-0.8s0.9-1.2,0.9-2.1s-0.3-1.5-0.8-2l-4.2-3.9c-0.8-0.7-1.2-1.6-1.2-2.6
				c0-1,0.3-1.9,1-2.6c0.7-0.7,1.6-1.1,2.8-1.1c0.5,0,1.2,0.1,1.9,0.2h0.8v2.7h-0.2c0-0.7-0.2-1.2-0.7-1.6c-0.5-0.4-1.1-0.6-1.8-0.6
				c-0.7,0-1.4,0.2-1.9,0.7c-0.5,0.5-0.7,1.1-0.7,1.8c0,0.7,0.3,1.4,0.9,1.9l4.3,3.9c0.7,0.7,1.1,1.6,1.1,2.7s-0.4,2.1-1.1,2.9
				c-0.7,0.7-1.7,1.1-3,1.1c-0.6,0-1.3-0.1-2-0.3C77.7,56.3,77.1,56,76.7,55.6z"/>
			<path class="st1" d="M98.5,43.2c0-0.3-0.1-0.6-0.4-0.9s-0.5-0.4-0.9-0.4h-4.1v13c0,0.4,0.2,0.7,0.4,1c0.3,0.3,0.6,0.4,1,0.4h0.3
				v0.2h-4.8v-0.2h0.3c0.4,0,0.7-0.1,1-0.4c0.3-0.3,0.4-0.6,0.4-0.9v-13h-4.1c-0.3,0-0.6,0.1-0.9,0.4s-0.4,0.6-0.4,0.9v0.4l-0.2,0
				v-2.7c0.2,0.1,0.6,0.2,1.1,0.3c0.5,0.1,1,0.1,1.5,0.1h7.3c0.7,0,1.3-0.1,1.8-0.2c0.5-0.1,0.8-0.2,0.9-0.2v2.7l-0.2,0V43.2z"/>
			<path class="st1" d="M119.7,60.2c-0.6,0.2-1.1,0.2-1.6,0.2c-0.5,0-0.9,0-1.2-0.1c-0.4-0.1-0.7-0.2-1.2-0.3
				c-0.4-0.2-0.8-0.4-1.2-0.6s-0.7-0.5-1.1-0.8c-0.7-0.5-1.3-1.1-1.8-1.7c-0.5-0.6-1.6-1.8-3.1-3.5c-1.5-1.7-2.6-2.9-3.1-3.4
				c-0.5-0.6-0.9-0.9-1.2-0.9v-0.2c0.8,0,1.4,0,1.7-0.1s0.6-0.1,0.9-0.2s0.6-0.2,0.8-0.4c0.9-0.5,1.3-1.5,1.3-2.7
				c0-1.1-0.2-1.9-0.7-2.5c-0.5-0.6-1.1-1-2-1h-2.7v12.9c0,0.4,0.1,0.7,0.4,1c0.3,0.3,0.6,0.4,1,0.4h0.3l0,0.2h-4.8v-0.2h0.3
				c0.4,0,0.7-0.1,1-0.4c0.3-0.3,0.4-0.6,0.4-1v-12c0-0.4-0.2-0.7-0.4-1c-0.3-0.3-0.6-0.4-1-0.4h-0.3v-0.2h5.9
				c1.3,0,2.3,0.4,3.1,1.1c0.8,0.7,1.2,1.7,1.2,2.8c0,1.2-0.4,2.2-1.1,3c-0.7,0.8-1.6,1.3-2.6,1.3h0c0.5,0.5,1,1.1,1.7,1.8
				c2.5,2.8,4.1,4.5,4.8,5.2c0.7,0.7,1.3,1.3,1.9,1.7c0.5,0.5,1,0.8,1.4,1c0.9,0.5,1.7,0.7,2.5,0.7c0.2,0,0.3,0,0.5,0V60.2z"/>
			<path class="st1" d="M114.9,56.3c0.4,0,0.7-0.1,1-0.4c0.3-0.3,0.4-0.6,0.4-1v-12c0-0.4-0.2-0.7-0.4-1c-0.3-0.3-0.6-0.4-1-0.4
				h-0.3v-0.2h4.8v0.2h-0.3c-0.4,0-0.7,0.1-1,0.4c-0.3,0.3-0.4,0.6-0.4,1v12c0,0.4,0.1,0.7,0.4,1c0.3,0.3,0.6,0.4,1,0.4h0.3v0.2
				h-4.8v-0.2H114.9z"/>
			<path class="st1" d="M136.2,56.3h0.2v0.2h-4.9v-0.2h0.2c0.3,0,0.5-0.1,0.7-0.3c0.2-0.2,0.2-0.4,0.2-0.6s0-0.3-0.1-0.5l-1.4-3.7
				h-5.9l-1.5,3.7c-0.1,0.2-0.1,0.3-0.1,0.5c0,0.2,0.1,0.3,0.2,0.5c0.2,0.2,0.4,0.3,0.7,0.3h0.2v0.2h-4.4v-0.2h0.2
				c0.4,0,0.7-0.1,1.1-0.3c0.3-0.2,0.6-0.6,0.8-1l4.9-11.7c0.5-1.2,0.8-1.9,0.8-2.2h0.2l5.8,13.9c0.2,0.4,0.5,0.8,0.8,1
				C135.4,56.2,135.8,56.3,136.2,56.3z M125.5,50.6h5.3l-2.6-7L125.5,50.6z"/>
		</g>
		<g class="st0">
			<path class="st1" d="M50.7,65l-3.1,6.9h-0.5L44,65h0.6l2.8,6.2l2.8-6.2H50.7z"/>
		</g>
		<g class="st0">
			<path class="st1" d="M55.8,70h-4L51,71.9h-0.5l3.2-6.9h0.5l3.2,6.9h-0.5L55.8,70z M55.6,69.6l-1.8-4l-1.8,4H55.6z"/>
			<path class="st1" d="M63.7,68.9c0.3,0.3,0.4,0.7,0.4,1.2c0,0.6-0.2,1-0.6,1.3c-0.4,0.3-1.1,0.5-1.9,0.5h-3.1V65h2.9
				c0.7,0,1.3,0.2,1.7,0.5c0.4,0.3,0.6,0.7,0.6,1.3c0,0.4-0.1,0.7-0.3,1c-0.2,0.3-0.5,0.5-0.8,0.6C63.1,68.5,63.5,68.7,63.7,68.9z
				 M59,65.5v2.7h2.4c0.6,0,1.1-0.1,1.4-0.3c0.3-0.2,0.5-0.6,0.5-1c0-0.4-0.2-0.8-0.5-1c-0.3-0.2-0.8-0.3-1.4-0.3H59z M63.1,71.1
				c0.3-0.2,0.5-0.6,0.5-1.1s-0.2-0.8-0.5-1.1c-0.3-0.2-0.9-0.3-1.5-0.3H59v2.8h2.6C62.2,71.5,62.7,71.4,63.1,71.1z"/>
			<path class="st1" d="M70.7,71.9L69,69.6c-0.2,0-0.5,0-0.7,0h-2v2.3h-0.5V65h2.5c0.9,0,1.5,0.2,2,0.6c0.5,0.4,0.7,1,0.7,1.7
				c0,0.5-0.1,1-0.4,1.4c-0.3,0.4-0.7,0.6-1.2,0.8l1.7,2.4H70.7z M68.4,69.2c0.7,0,1.3-0.2,1.7-0.5c0.4-0.3,0.6-0.8,0.6-1.4
				c0-0.6-0.2-1.1-0.6-1.4c-0.4-0.3-0.9-0.5-1.7-0.5h-2v3.7H68.4z"/>
			<path class="st1" d="M73,65h0.5v6.9H73V65z"/>
			<path class="st1" d="M80.8,68.5h0.5v2.6c-0.3,0.3-0.7,0.5-1.1,0.7c-0.4,0.2-0.9,0.2-1.4,0.2c-0.7,0-1.3-0.2-1.8-0.5
				c-0.5-0.3-1-0.7-1.3-1.2c-0.3-0.5-0.5-1.1-0.5-1.8c0-0.7,0.2-1.3,0.5-1.8c0.3-0.5,0.7-0.9,1.3-1.2c0.5-0.3,1.2-0.5,1.9-0.5
				c0.5,0,1,0.1,1.4,0.2c0.4,0.2,0.8,0.4,1.1,0.7L81,66.3c-0.3-0.3-0.6-0.5-1-0.6s-0.8-0.2-1.2-0.2c-0.6,0-1.1,0.1-1.6,0.4
				c-0.5,0.3-0.8,0.6-1.1,1.1c-0.3,0.5-0.4,1-0.4,1.5c0,0.6,0.1,1.1,0.4,1.5c0.3,0.5,0.6,0.8,1.1,1.1c0.5,0.3,1,0.4,1.6,0.4
				c0.8,0,1.4-0.2,2-0.6V68.5z"/>
			<path class="st1" d="M87.8,70h-4l-0.9,1.9h-0.5l3.2-6.9H86l3.2,6.9h-0.5L87.8,70z M87.6,69.6l-1.8-4l-1.8,4H87.6z"/>
		</g>
		<path class="st2" d="M58.2,16.6h-14c-0.8,0-1.5,0.5-1.8,1.2c0,0,0,0.1,0,0.1c0,0.1,0,0.2,0,0.2s0,0.1,0,0.1l0,0
			c0,0.2,0,0.4,0.1,0.6c0.4,0.6,1.1,1,1.8,1h13.9c0.8,0,1.6-0.4,1.9-1.2c0.1-0.1,0.1-0.3,0.1-0.5c0-0.5-0.2-0.9-0.6-1.2
			C59.2,16.8,58.7,16.6,58.2,16.6z"/>
		<path class="st2" d="M71.8,16.6h-8h-0.1h-0.1h-0.1h-0.1h-0.1h-0.1h-0.1h-0.1H63L62.9,17h-0.1l-0.1,0.1l0,0l-0.1,0.1l0,0
			c-0.1,0.1-0.2,0.3-0.3,0.4l0,0l-0.1,0.1c-0.1,0.2-0.1,0.4-0.1,0.6c0.1,1,1,1.7,2,1.7c0,0,0,0,0,0h8.1h0.1h0.1h0.1h0.1h0.1l0.1,0
			h0.1H73l0.1,0h0.1h0.1h0.1l0.1-0.1l0,0c0.1-0.1,0.2-0.3,0.3-0.4l0,0l0.1-0.1l0,0c0.1-0.2,0.1-0.4,0.1-0.6c0.1-1-0.6-1.9-1.6-2
			C72.1,16.6,72,16.6,71.8,16.6z"/>
		<path class="st2" d="M91.5,16.6H77.7c-0.8,0-1.6,0.4-1.9,1.2c0,0.1-0.1,0.3-0.1,0.5l0,0c0.1,1,1,1.7,1.9,1.6h13.9
			c0.7,0,1.4-0.4,1.8-1l0,0l0.1-0.2c0,0,0,0,0-0.1s0-0.2,0-0.2s0-0.1,0-0.1l0,0C93.3,17.4,92.5,16.6,91.5,16.6z"/>
		<path class="st2" d="M53.8,26.1v0.1l0,0c0,0.1,0,0.2,0,0.2c0,0,0,0.1,0,0.1c-0.1,0.4-0.5,0.8-0.9,1c-0.3,0.2-0.7,0.2-1,0.2H47
			c-0.3,0-0.6-0.1-0.9-0.2L46,27.5l-0.1-0.1l-0.1-0.1l-0.1-0.1l0,0l-0.1-0.1l-0.1-0.1c-0.2-0.2-0.3-0.4-0.3-0.6v-0.1
			c0-0.1,0-0.1,0-0.2v-0.1l0,0V26c0-0.1,0-0.2,0-0.2s0-0.1,0-0.1c0.1-0.2,0.2-0.5,0.4-0.6l0.1-0.1l0,0h0.1l0.1-0.1l0.1-0.2h0.1
			l0.1-0.1h0.1l0,0c0.2-0.1,0.3-0.1,0.5-0.1h5.1c0.2,0,0.3,0,0.5,0l0,0h0.1c0.3,0.1,0.5,0.2,0.8,0.4C53.6,25.2,53.8,25.6,53.8,26.1z
			"/>
		<path class="st2" d="M78.1,24.4H57.8c-0.8,0-1.6,0.4-1.9,1.2c0,0.1-0.1,0.3-0.1,0.4l0,0c0.1,1,1,1.7,1.9,1.6h20.4
			c0.8,0.1,1.6-0.4,1.9-1.2c0-0.1,0.1-0.3,0.1-0.4l0,0C80,25.1,79.1,24.4,78.1,24.4C78.1,24.4,78.1,24.4,78.1,24.4z"/>
		<path class="st2" d="M90.7,26.1v0.1l0,0c0,0.1,0,0.2,0,0.2s0,0,0,0.1c-0.1,0.4-0.5,0.8-0.9,1c-0.3,0.2-0.7,0.2-1,0.2h-4.9
			c-1,0.1-1.9-0.7-1.9-1.7c0,0,0,0,0,0c0.1-1,1-1.7,1.9-1.6h4.8c0.5,0,1,0.2,1.4,0.5C90.5,25.2,90.7,25.6,90.7,26.1z"/>
		<path class="st3" d="M77.7,10.9h14c0.8,0,1.5-0.5,1.7-1.2c0,0,0-0.1,0-0.1c0-0.1,0-0.2,0-0.2s0-0.1,0-0.1l0,0c0-0.2,0-0.4-0.1-0.6
			c-0.4-0.6-1.1-1-1.8-1H77.7c-0.8,0-1.6,0.4-1.9,1.2c-0.1,0.1-0.1,0.3-0.1,0.4c0,0.5,0.2,0.9,0.6,1.2
			C76.7,10.7,77.2,10.9,77.7,10.9z"/>
		<path class="st4" d="M64,10.9h8.1h0.1h0.1h0.1h0.1h0.1l0.1-0.1h0.1l0.1-0.1h0.1H73l0.1-0.1h0.1l0.1-0.1l0,0
			c0.1-0.1,0.2-0.3,0.3-0.4l0,0l0.1-0.1c0.1-0.2,0.1-0.4,0.1-0.6c-0.1-1-1-1.7-2-1.7c0,0,0,0,0,0h-8h-0.1h-0.1h-0.1h-0.1h-0.1h-0.1
			H63H63h-0.1h-0.1h-0.1l0,0.1l0,0c0,0,0,0.1-0.1,0.1l0,0c-0.1,0.1-0.2,0.3-0.3,0.4l0,0l-0.1,0.1l0,0c-0.1,0.2-0.1,0.4-0.1,0.6
			C62.2,10.1,63,10.9,64,10.9z"/>
		<path class="st3" d="M44.3,10.9h13.9c0.8,0,1.6-0.4,1.9-1.2c0-0.1,0.1-0.3,0.1-0.4l0,0c-0.1-1-1-1.7-2-1.7H44.3
			c-0.7,0-1.4,0.4-1.8,1l0,0l-0.1,0.1c0,0,0,0.1,0,0.1s0,0.2,0,0.2s0,0.1,0,0.1l0,0C42.5,10.1,43.3,10.9,44.3,10.9z"/>
		<path class="st3" d="M82.1,1.7V1.6l0,0c0-0.1,0-0.2,0-0.3c0,0,0,0,0-0.1c0.1-0.4,0.5-0.8,0.9-1C83.3,0.1,83.6,0,84,0h4.8
			c0.3,0,0.6,0.1,0.9,0.2l0.1,0.1L90,0.3l0.1,0.1l0.1,0.1l0,0l0.1,0.1l0.1,0.1c0.1,0.1,0.2,0.3,0.3,0.4c0,0.1,0.1,0.1,0.1,0.2v0.1
			c0,0.1,0,0.1,0,0.2v0.1l0,0v0.1c0,0.1,0,0.2,0,0.3c0,0,0,0.1,0,0.1c-0.1,0.2-0.2,0.5-0.4,0.6l-0.1,0.1l0,0l-0.1,0
			c0,0-0.1,0.1-0.1,0.1l-0.1,0.1h-0.1l-0.1,0.1h-0.1l0,0c-0.2,0.1-0.3,0.1-0.5,0.1h-5.2c-0.2,0-0.3,0-0.5,0l0,0h-0.1
			c-0.3-0.1-0.5-0.2-0.8-0.4C82.3,2.6,82.1,2.1,82.1,1.7z"/>
		<path class="st3" d="M57.8,3.3h20.4c0.8,0,1.6-0.4,1.9-1.2c0-0.1,0.1-0.3,0.1-0.5l0,0c-0.1-1-0.9-1.8-1.9-1.7c0,0,0,0,0,0H57.8
			c-0.8,0-1.6,0.5-1.9,1.2c0,0.1-0.1,0.3-0.1,0.5l0,0C55.9,2.7,56.8,3.4,57.8,3.3z"/>
		<path class="st3" d="M45.2,1.7V1.6l0,0c0-0.1,0-0.2,0-0.2s0-0.1,0-0.1c0.1-0.4,0.5-0.8,0.9-1C46.3,0.1,46.7,0,47,0h4.8
			c1-0.1,1.9,0.7,1.9,1.7c-0.1,1-0.9,1.7-1.9,1.7h-4.7c-0.5,0-1-0.2-1.4-0.5C45.4,2.6,45.2,2.1,45.2,1.7z"/>
	</g>
</g>
</svg>
